<svg xmlns="http://www.w3.org/2000/svg" xmlns:xlink="http://www.w3.org/1999/xlink" width="600" height="400" viewBox="0 0 2400 1600">
<defs>
  <clipPath id="clip850">
    <rect x="0" y="0" width="2400" height="1600"></rect>
  </clipPath>
</defs>
<path clip-path="url(#clip850)" d="
M0 1600 L2400 1600 L2400 0 L0 0  Z
  " fill="#ffffff" fill-rule="evenodd" fill-opacity="1"></path>
<defs>
  <clipPath id="clip851">
    <rect x="480" y="0" width="1681" height="1600"></rect>
  </clipPath>
</defs>
<defs>
  <clipPath id="clip852">
    <rect x="256" y="47" width="2097" height="1371"></rect>
  </clipPath>
</defs>
<path clip-path="url(#clip850)" d="
M256.457 1416.92 L2352.76 1416.92 L2352.76 123.472 L256.457 123.472  Z
  " fill="#ffffff" fill-rule="evenodd" fill-opacity="1"></path>
<defs>
  <clipPath id="clip853">
    <rect x="256" y="123" width="2097" height="1294"></rect>
  </clipPath>
</defs>
<polyline clip-path="url(#clip853)" style="stroke:#000000; stroke-linecap:butt; stroke-linejoin:round; stroke-width:2; stroke-opacity:0.1; fill:none" points="
  315.786,1416.92 315.786,123.472 
  "></polyline>
<polyline clip-path="url(#clip853)" style="stroke:#000000; stroke-linecap:butt; stroke-linejoin:round; stroke-width:2; stroke-opacity:0.1; fill:none" points="
  810.196,1416.92 810.196,123.472 
  "></polyline>
<polyline clip-path="url(#clip853)" style="stroke:#000000; stroke-linecap:butt; stroke-linejoin:round; stroke-width:2; stroke-opacity:0.1; fill:none" points="
  1304.61,1416.92 1304.61,123.472 
  "></polyline>
<polyline clip-path="url(#clip853)" style="stroke:#000000; stroke-linecap:butt; stroke-linejoin:round; stroke-width:2; stroke-opacity:0.1; fill:none" points="
  1799.02,1416.92 1799.02,123.472 
  "></polyline>
<polyline clip-path="url(#clip853)" style="stroke:#000000; stroke-linecap:butt; stroke-linejoin:round; stroke-width:2; stroke-opacity:0.1; fill:none" points="
  2293.43,1416.92 2293.43,123.472 
  "></polyline>
<polyline clip-path="url(#clip850)" style="stroke:#000000; stroke-linecap:butt; stroke-linejoin:round; stroke-width:4; stroke-opacity:1; fill:none" points="
  256.457,1416.92 2352.76,1416.92 
  "></polyline>
<polyline clip-path="url(#clip850)" style="stroke:#000000; stroke-linecap:butt; stroke-linejoin:round; stroke-width:4; stroke-opacity:1; fill:none" points="
  315.786,1416.92 315.786,1398.02 
  "></polyline>
<polyline clip-path="url(#clip850)" style="stroke:#000000; stroke-linecap:butt; stroke-linejoin:round; stroke-width:4; stroke-opacity:1; fill:none" points="
  810.196,1416.92 810.196,1398.02 
  "></polyline>
<polyline clip-path="url(#clip850)" style="stroke:#000000; stroke-linecap:butt; stroke-linejoin:round; stroke-width:4; stroke-opacity:1; fill:none" points="
  1304.61,1416.92 1304.61,1398.02 
  "></polyline>
<polyline clip-path="url(#clip850)" style="stroke:#000000; stroke-linecap:butt; stroke-linejoin:round; stroke-width:4; stroke-opacity:1; fill:none" points="
  1799.02,1416.92 1799.02,1398.02 
  "></polyline>
<polyline clip-path="url(#clip850)" style="stroke:#000000; stroke-linecap:butt; stroke-linejoin:round; stroke-width:4; stroke-opacity:1; fill:none" points="
  2293.43,1416.92 2293.43,1398.02 
  "></polyline>
<path clip-path="url(#clip850)" d="M318.795 1448.84 L306.99 1467.28 L318.795 1467.28 L318.795 1448.84 M317.568 1444.76 L323.448 1444.76 L323.448 1467.28 L328.378 1467.28 L328.378 1471.17 L323.448 1471.17 L323.448 1479.32 L318.795 1479.32 L318.795 1471.17 L303.193 1471.17 L303.193 1466.66 L317.568 1444.76 Z" fill="#000000" fill-rule="evenodd" fill-opacity="1"></path><path clip-path="url(#clip850)" d="M810.601 1460.18 Q807.453 1460.18 805.601 1462.33 Q803.772 1464.48 803.772 1468.23 Q803.772 1471.96 805.601 1474.14 Q807.453 1476.29 810.601 1476.29 Q813.749 1476.29 815.578 1474.14 Q817.43 1471.96 817.43 1468.23 Q817.43 1464.48 815.578 1462.33 Q813.749 1460.18 810.601 1460.18 M819.883 1445.53 L819.883 1449.78 Q818.124 1448.95 816.319 1448.51 Q814.536 1448.07 812.777 1448.07 Q808.147 1448.07 805.694 1451.2 Q803.263 1454.32 802.916 1460.64 Q804.282 1458.63 806.342 1457.56 Q808.402 1456.47 810.879 1456.47 Q816.087 1456.47 819.096 1459.65 Q822.129 1462.79 822.129 1468.23 Q822.129 1473.56 818.981 1476.78 Q815.833 1479.99 810.601 1479.99 Q804.606 1479.99 801.434 1475.41 Q798.263 1470.8 798.263 1462.08 Q798.263 1453.88 802.152 1449.02 Q806.041 1444.14 812.592 1444.14 Q814.351 1444.14 816.133 1444.48 Q817.939 1444.83 819.883 1445.53 Z" fill="#000000" fill-rule="evenodd" fill-opacity="1"></path><path clip-path="url(#clip850)" d="M1304.61 1462.91 Q1301.27 1462.91 1299.35 1464.69 Q1297.45 1466.47 1297.45 1469.6 Q1297.45 1472.72 1299.35 1474.51 Q1301.27 1476.29 1304.61 1476.29 Q1307.94 1476.29 1309.86 1474.51 Q1311.78 1472.7 1311.78 1469.6 Q1311.78 1466.47 1309.86 1464.69 Q1307.96 1462.91 1304.61 1462.91 M1299.93 1460.92 Q1296.92 1460.18 1295.23 1458.12 Q1293.56 1456.06 1293.56 1453.1 Q1293.56 1448.95 1296.5 1446.54 Q1299.47 1444.14 1304.61 1444.14 Q1309.77 1444.14 1312.71 1446.54 Q1315.65 1448.95 1315.65 1453.1 Q1315.65 1456.06 1313.96 1458.12 Q1312.29 1460.18 1309.31 1460.92 Q1312.68 1461.71 1314.56 1464 Q1316.46 1466.29 1316.46 1469.6 Q1316.46 1474.62 1313.38 1477.31 Q1310.32 1479.99 1304.61 1479.99 Q1298.89 1479.99 1295.81 1477.31 Q1292.75 1474.62 1292.75 1469.6 Q1292.75 1466.29 1294.65 1464 Q1296.55 1461.71 1299.93 1460.92 M1298.22 1453.53 Q1298.22 1456.22 1299.88 1457.72 Q1301.57 1459.23 1304.61 1459.23 Q1307.62 1459.23 1309.31 1457.72 Q1311.02 1456.22 1311.02 1453.53 Q1311.02 1450.85 1309.31 1449.35 Q1307.62 1447.84 1304.61 1447.84 Q1301.57 1447.84 1299.88 1449.35 Q1298.22 1450.85 1298.22 1453.53 Z" fill="#000000" fill-rule="evenodd" fill-opacity="1"></path><path clip-path="url(#clip850)" d="M1773.7 1475.39 L1781.34 1475.39 L1781.34 1449.02 L1773.03 1450.69 L1773.03 1446.43 L1781.3 1444.76 L1785.97 1444.76 L1785.97 1475.39 L1793.61 1475.39 L1793.61 1479.32 L1773.7 1479.32 L1773.7 1475.39 Z" fill="#000000" fill-rule="evenodd" fill-opacity="1"></path><path clip-path="url(#clip850)" d="M1813.06 1447.84 Q1809.44 1447.84 1807.62 1451.41 Q1805.81 1454.95 1805.81 1462.08 Q1805.81 1469.18 1807.62 1472.75 Q1809.44 1476.29 1813.06 1476.29 Q1816.69 1476.29 1818.5 1472.75 Q1820.32 1469.18 1820.32 1462.08 Q1820.32 1454.95 1818.5 1451.41 Q1816.69 1447.84 1813.06 1447.84 M1813.06 1444.14 Q1818.87 1444.14 1821.92 1448.74 Q1825 1453.33 1825 1462.08 Q1825 1470.8 1821.92 1475.41 Q1818.87 1479.99 1813.06 1479.99 Q1807.25 1479.99 1804.17 1475.41 Q1801.11 1470.8 1801.11 1462.08 Q1801.11 1453.33 1804.17 1448.74 Q1807.25 1444.14 1813.06 1444.14 Z" fill="#000000" fill-rule="evenodd" fill-opacity="1"></path><path clip-path="url(#clip850)" d="M2268.91 1475.39 L2276.55 1475.39 L2276.55 1449.02 L2268.24 1450.69 L2268.24 1446.43 L2276.51 1444.76 L2281.18 1444.76 L2281.18 1475.39 L2288.82 1475.39 L2288.82 1479.32 L2268.91 1479.32 L2268.91 1475.39 Z" fill="#000000" fill-rule="evenodd" fill-opacity="1"></path><path clip-path="url(#clip850)" d="M2302.29 1475.39 L2318.61 1475.39 L2318.61 1479.32 L2296.67 1479.32 L2296.67 1475.39 Q2299.33 1472.63 2303.91 1468 Q2308.52 1463.35 2309.7 1462.01 Q2311.95 1459.48 2312.82 1457.75 Q2313.73 1455.99 2313.73 1454.3 Q2313.73 1451.54 2311.78 1449.81 Q2309.86 1448.07 2306.76 1448.07 Q2304.56 1448.07 2302.11 1448.84 Q2299.68 1449.6 2296.9 1451.15 L2296.9 1446.43 Q2299.72 1445.29 2302.18 1444.72 Q2304.63 1444.14 2306.67 1444.14 Q2312.04 1444.14 2315.23 1446.82 Q2318.43 1449.51 2318.43 1454 Q2318.43 1456.13 2317.62 1458.05 Q2316.83 1459.95 2314.72 1462.54 Q2314.14 1463.21 2311.04 1466.43 Q2307.94 1469.62 2302.29 1475.39 Z" fill="#000000" fill-rule="evenodd" fill-opacity="1"></path><path clip-path="url(#clip850)" d="M1207.8 1500.64 L1198.3 1538.77 Q1197.91 1540.28 1197.91 1541.93 Q1197.91 1544.95 1199.91 1544.95 Q1200.84 1544.95 1201.61 1544.34 Q1202.39 1543.7 1202.97 1542.44 Q1203.58 1541.15 1203.97 1539.93 Q1204.38 1538.71 1204.9 1536.81 Q1205.06 1536.07 1205.22 1535.84 Q1205.38 1535.61 1205.83 1535.61 Q1206.64 1535.61 1206.64 1536.26 Q1205.83 1540.22 1204.64 1542.73 Q1202.9 1546.44 1199.68 1546.44 Q1197.27 1546.44 1195.46 1544.76 Q1193.69 1543.05 1193.69 1540.35 Q1193.69 1539.32 1194.01 1538.09 L1202.32 1505.12 L1202.55 1503.83 Q1202.55 1503.47 1202.42 1503.28 Q1202.29 1503.09 1201.52 1502.89 Q1200.78 1502.7 1199.3 1502.7 Q1198.68 1502.7 1198.39 1502.67 Q1198.14 1502.64 1197.88 1502.47 Q1197.65 1502.31 1197.65 1501.96 Q1197.65 1501.38 1197.88 1501.06 Q1198.14 1500.74 1198.33 1500.67 Q1198.52 1500.61 1198.91 1500.57 Q1199.46 1500.54 1201.29 1500.38 Q1203.13 1500.19 1204.71 1500.06 Q1206.28 1499.93 1206.96 1499.93 Q1207.35 1499.93 1207.54 1500.12 Q1207.77 1500.28 1207.8 1500.48 L1207.8 1500.64 Z" fill="#000000" fill-rule="evenodd" fill-opacity="1"></path><path clip-path="url(#clip850)" d="M1243.51 1527.69 Q1243.51 1531.2 1241.96 1534.68 Q1240.41 1538.13 1237.94 1540.7 Q1235.49 1543.25 1232.27 1544.86 Q1229.05 1546.44 1225.83 1546.44 Q1221.22 1546.44 1218.23 1543.31 Q1215.26 1540.16 1215.26 1535.26 Q1215.26 1530.69 1217.81 1526.34 Q1220.38 1521.96 1224.51 1519.25 Q1228.63 1516.55 1232.94 1516.55 Q1237.48 1516.55 1240.48 1519.61 Q1243.51 1522.67 1243.51 1527.69 M1238.68 1525.12 Q1238.68 1521.99 1237.16 1519.99 Q1235.65 1518 1232.88 1518 Q1232.07 1518 1231.14 1518.26 Q1230.21 1518.48 1228.98 1519.09 Q1227.79 1519.7 1226.44 1520.99 Q1225.12 1522.25 1223.96 1524.05 Q1222.44 1526.44 1221.28 1530.82 Q1220.16 1535.16 1220.16 1537.77 Q1220.16 1541.38 1221.83 1543.18 Q1223.51 1544.95 1225.89 1544.95 Q1228.21 1544.95 1230.66 1543.34 Q1233.14 1541.7 1234.84 1538.9 Q1236.55 1536 1237.61 1531.75 Q1238.68 1527.47 1238.68 1525.12 Z" fill="#000000" fill-rule="evenodd" fill-opacity="1"></path><path clip-path="url(#clip850)" d="M1277.21 1519.64 Q1277.21 1519.67 1277.02 1520.83 L1269.67 1550.11 Q1269.29 1551.65 1268.19 1553.2 Q1267.13 1554.78 1265.42 1556.13 Q1263.75 1557.51 1261.17 1558.35 Q1258.63 1559.22 1255.7 1559.22 Q1251.03 1559.22 1248.97 1558.22 Q1246.94 1557.26 1246.94 1555.2 Q1246.94 1553.39 1248.06 1552.36 Q1249.19 1551.36 1250.48 1551.36 Q1251.7 1551.36 1252.35 1552.07 Q1252.99 1552.78 1252.99 1553.68 Q1252.99 1554.68 1252.32 1555.68 Q1251.64 1556.71 1250.29 1557.1 Q1252.44 1557.77 1255.57 1557.77 Q1262.17 1557.77 1265 1550.78 Q1265.07 1550.69 1265.07 1550.65 L1267.26 1541.93 L1267.16 1541.86 Q1266.62 1542.51 1265.75 1543.25 Q1264.91 1543.96 1263.1 1544.83 Q1261.3 1545.69 1259.53 1545.69 Q1255.83 1545.69 1253.28 1542.86 Q1250.77 1539.99 1250.77 1535.26 Q1250.77 1531.81 1252.15 1528.37 Q1253.57 1524.89 1255.76 1522.35 Q1257.98 1519.77 1260.82 1518.16 Q1263.68 1516.55 1266.45 1516.55 Q1268.39 1516.55 1270.03 1517.71 Q1271.67 1518.84 1272.57 1520.7 Q1272.73 1519.16 1273.6 1518.51 Q1274.51 1517.87 1275.28 1517.87 Q1276.15 1517.87 1276.66 1518.35 Q1277.21 1518.8 1277.21 1519.64 M1271.8 1523.67 Q1271.8 1523.47 1271.67 1522.96 Q1271.54 1522.41 1271.16 1521.54 Q1270.8 1520.67 1270.25 1519.9 Q1269.71 1519.13 1268.71 1518.58 Q1267.74 1518 1266.52 1518 Q1264.52 1518 1262.53 1519.67 Q1260.53 1521.32 1259.14 1523.86 Q1257.86 1526.31 1256.63 1531.04 Q1255.44 1535.78 1255.44 1538.19 Q1255.44 1540.57 1256.47 1542.41 Q1257.5 1544.25 1259.72 1544.25 Q1262.3 1544.25 1265.07 1541.86 Q1267.94 1539.38 1268.42 1537.26 L1271.61 1524.66 Q1271.8 1523.89 1271.8 1523.67 Z" fill="#000000" fill-rule="evenodd" fill-opacity="1"></path><path clip-path="url(#clip850)" d="M1283.96 1577.36 Q1283.96 1576.53 1284.03 1576.28 Q1284.12 1576.03 1284.48 1575.65 L1293.34 1565.77 Q1298.19 1560.32 1298.19 1555.56 Q1298.19 1552.47 1296.56 1550.26 Q1294.96 1548.05 1292.01 1548.05 Q1289.98 1548.05 1288.27 1549.29 Q1286.55 1550.53 1285.77 1552.74 Q1285.9 1552.7 1286.37 1552.7 Q1287.52 1552.7 1288.15 1553.42 Q1288.81 1554.14 1288.81 1555.11 Q1288.81 1556.35 1288 1556.96 Q1287.21 1557.55 1286.42 1557.55 Q1286.1 1557.55 1285.68 1557.48 Q1285.27 1557.41 1284.62 1556.78 Q1283.96 1556.13 1283.96 1554.98 Q1283.96 1551.75 1286.4 1549.18 Q1288.85 1546.61 1292.6 1546.61 Q1296.83 1546.61 1299.61 1549.14 Q1302.4 1551.64 1302.4 1555.56 Q1302.4 1556.94 1301.97 1558.2 Q1301.57 1559.44 1301.01 1560.41 Q1300.46 1561.38 1298.98 1562.93 Q1297.49 1564.49 1296.29 1565.59 Q1295.1 1566.7 1292.42 1569.04 L1287.52 1573.8 L1295.84 1573.8 Q1299.9 1573.8 1300.22 1573.44 Q1300.67 1572.79 1301.23 1569.34 L1302.4 1569.34 L1301.1 1577.36 L1283.96 1577.36 Z" fill="#000000" fill-rule="evenodd" fill-opacity="1"></path><path clip-path="url(#clip850)" d="M1309.26 1529.21 Q1309.26 1518.06 1313.41 1509.08 Q1315.18 1505.31 1317.66 1502.15 Q1320.14 1499 1321.78 1497.61 Q1323.43 1496.23 1323.88 1496.23 Q1324.52 1496.23 1324.55 1496.87 Q1324.55 1497.19 1323.68 1498 Q1313.06 1508.82 1313.09 1529.21 Q1313.09 1549.66 1323.43 1560.06 Q1324.55 1561.19 1324.55 1561.54 Q1324.55 1562.18 1323.88 1562.18 Q1323.43 1562.18 1321.85 1560.86 Q1320.27 1559.54 1317.82 1556.52 Q1315.38 1553.49 1313.6 1549.79 Q1309.26 1540.8 1309.26 1529.21 Z" fill="#000000" fill-rule="evenodd" fill-opacity="1"></path><path clip-path="url(#clip850)" d="M1386.15 1501.38 Q1386.15 1502.7 1385.02 1502.7 Q1381.38 1502.83 1379.9 1504.05 Q1378.45 1505.24 1377.9 1507.56 L1368.69 1544.31 Q1368.37 1545.47 1368.18 1545.6 Q1367.98 1545.69 1367.63 1545.69 Q1367.18 1545.69 1366.92 1545.47 Q1366.69 1545.24 1366.37 1544.44 L1349.95 1505.6 Q1349.82 1505.34 1349.66 1504.99 Q1349.5 1504.63 1349.37 1504.41 L1340.64 1539.22 Q1340.38 1540.22 1340.38 1540.74 Q1340.38 1541.99 1341.25 1542.8 Q1342.15 1543.57 1344.73 1543.67 Q1346.05 1543.67 1346.05 1544.37 Q1346.05 1545.69 1344.86 1545.69 Q1343.76 1545.69 1341.48 1545.6 Q1339.19 1545.5 1338.06 1545.5 Q1336.97 1545.5 1334.75 1545.6 Q1332.52 1545.69 1331.46 1545.69 Q1330.62 1545.69 1330.62 1544.95 Q1330.62 1544.37 1330.85 1544.08 Q1331.07 1543.76 1331.27 1543.73 Q1331.46 1543.67 1331.75 1543.67 Q1333.68 1543.6 1335 1543.22 Q1336.32 1542.83 1337.07 1542.09 Q1337.84 1541.35 1338.19 1540.61 Q1338.58 1539.83 1338.87 1538.71 L1347.69 1503.28 Q1347.69 1502.7 1343.22 1502.7 Q1342.44 1502.7 1342.12 1502.67 Q1341.83 1502.64 1341.61 1502.47 Q1341.38 1502.31 1341.38 1501.96 Q1341.38 1501.06 1341.77 1500.86 Q1342.15 1500.64 1343.28 1500.64 L1352.14 1500.64 Q1353.26 1500.64 1353.55 1500.83 Q1353.84 1500.99 1354.23 1501.9 L1368.82 1536.32 L1376.2 1506.98 Q1376.39 1506.4 1376.39 1505.6 Q1376.39 1504.31 1375.42 1503.54 Q1374.49 1502.73 1371.91 1502.7 Q1370.72 1502.7 1370.72 1501.96 Q1370.72 1501.35 1370.95 1501.06 Q1371.2 1500.74 1371.4 1500.7 Q1371.62 1500.64 1371.91 1500.64 Q1373.01 1500.64 1375.26 1500.74 Q1377.52 1500.83 1378.64 1500.83 Q1379.74 1500.83 1381.96 1500.74 Q1384.21 1500.64 1385.31 1500.64 Q1385.7 1500.64 1385.89 1500.83 Q1386.11 1500.99 1386.15 1501.19 L1386.15 1501.38 Z" fill="#000000" fill-rule="evenodd" fill-opacity="1"></path><path clip-path="url(#clip850)" d="M1390.19 1561.54 Q1390.19 1561.22 1391.03 1560.41 Q1401.66 1549.59 1401.66 1529.21 Q1401.66 1508.75 1391.45 1498.42 Q1390.19 1497.23 1390.19 1496.87 Q1390.19 1496.23 1390.84 1496.23 Q1391.29 1496.23 1392.87 1497.55 Q1394.48 1498.87 1396.89 1501.9 Q1399.34 1504.92 1401.14 1508.63 Q1405.49 1517.61 1405.49 1529.21 Q1405.49 1540.35 1401.34 1549.33 Q1399.56 1553.1 1397.09 1556.26 Q1394.61 1559.41 1392.96 1560.8 Q1391.32 1562.18 1390.84 1562.18 Q1390.19 1562.18 1390.19 1561.54 Z" fill="#000000" fill-rule="evenodd" fill-opacity="1"></path><polyline clip-path="url(#clip853)" style="stroke:#000000; stroke-linecap:butt; stroke-linejoin:round; stroke-width:2; stroke-opacity:0.1; fill:none" points="
  256.457,1362.98 2352.76,1362.98 
  "></polyline>
<polyline clip-path="url(#clip853)" style="stroke:#000000; stroke-linecap:butt; stroke-linejoin:round; stroke-width:2; stroke-opacity:0.1; fill:none" points="
  256.457,1107.44 2352.76,1107.44 
  "></polyline>
<polyline clip-path="url(#clip853)" style="stroke:#000000; stroke-linecap:butt; stroke-linejoin:round; stroke-width:2; stroke-opacity:0.1; fill:none" points="
  256.457,851.892 2352.76,851.892 
  "></polyline>
<polyline clip-path="url(#clip853)" style="stroke:#000000; stroke-linecap:butt; stroke-linejoin:round; stroke-width:2; stroke-opacity:0.1; fill:none" points="
  256.457,596.349 2352.76,596.349 
  "></polyline>
<polyline clip-path="url(#clip853)" style="stroke:#000000; stroke-linecap:butt; stroke-linejoin:round; stroke-width:2; stroke-opacity:0.1; fill:none" points="
  256.457,340.805 2352.76,340.805 
  "></polyline>
<polyline clip-path="url(#clip850)" style="stroke:#000000; stroke-linecap:butt; stroke-linejoin:round; stroke-width:4; stroke-opacity:1; fill:none" points="
  256.457,1416.92 256.457,123.472 
  "></polyline>
<polyline clip-path="url(#clip850)" style="stroke:#000000; stroke-linecap:butt; stroke-linejoin:round; stroke-width:4; stroke-opacity:1; fill:none" points="
  256.457,1362.98 275.354,1362.98 
  "></polyline>
<polyline clip-path="url(#clip850)" style="stroke:#000000; stroke-linecap:butt; stroke-linejoin:round; stroke-width:4; stroke-opacity:1; fill:none" points="
  256.457,1107.44 275.354,1107.44 
  "></polyline>
<polyline clip-path="url(#clip850)" style="stroke:#000000; stroke-linecap:butt; stroke-linejoin:round; stroke-width:4; stroke-opacity:1; fill:none" points="
  256.457,851.892 275.354,851.892 
  "></polyline>
<polyline clip-path="url(#clip850)" style="stroke:#000000; stroke-linecap:butt; stroke-linejoin:round; stroke-width:4; stroke-opacity:1; fill:none" points="
  256.457,596.349 275.354,596.349 
  "></polyline>
<polyline clip-path="url(#clip850)" style="stroke:#000000; stroke-linecap:butt; stroke-linejoin:round; stroke-width:4; stroke-opacity:1; fill:none" points="
  256.457,340.805 275.354,340.805 
  "></polyline>
<path clip-path="url(#clip850)" d="M123.929 1376.32 L131.568 1376.32 L131.568 1349.96 L123.258 1351.62 L123.258 1347.37 L131.522 1345.7 L136.198 1345.7 L136.198 1376.32 L143.837 1376.32 L143.837 1380.26 L123.929 1380.26 L123.929 1376.32 Z" fill="#000000" fill-rule="evenodd" fill-opacity="1"></path><path clip-path="url(#clip850)" d="M163.281 1348.78 Q159.67 1348.78 157.841 1352.34 Q156.036 1355.88 156.036 1363.01 Q156.036 1370.12 157.841 1373.68 Q159.67 1377.23 163.281 1377.23 Q166.915 1377.23 168.721 1373.68 Q170.549 1370.12 170.549 1363.01 Q170.549 1355.88 168.721 1352.34 Q166.915 1348.78 163.281 1348.78 M163.281 1345.07 Q169.091 1345.07 172.147 1349.68 Q175.225 1354.26 175.225 1363.01 Q175.225 1371.74 172.147 1376.35 Q169.091 1380.93 163.281 1380.93 Q157.471 1380.93 154.392 1376.35 Q151.337 1371.74 151.337 1363.01 Q151.337 1354.26 154.392 1349.68 Q157.471 1345.07 163.281 1345.07 Z" fill="#000000" fill-rule="evenodd" fill-opacity="1"></path><path clip-path="url(#clip850)" d="M183.443 1374.38 L188.327 1374.38 L188.327 1380.26 L183.443 1380.26 L183.443 1374.38 Z" fill="#000000" fill-rule="evenodd" fill-opacity="1"></path><path clip-path="url(#clip850)" d="M208.512 1348.78 Q204.901 1348.78 203.072 1352.34 Q201.267 1355.88 201.267 1363.01 Q201.267 1370.12 203.072 1373.68 Q204.901 1377.23 208.512 1377.23 Q212.146 1377.23 213.952 1373.68 Q215.781 1370.12 215.781 1363.01 Q215.781 1355.88 213.952 1352.34 Q212.146 1348.78 208.512 1348.78 M208.512 1345.07 Q214.322 1345.07 217.378 1349.68 Q220.457 1354.26 220.457 1363.01 Q220.457 1371.74 217.378 1376.35 Q214.322 1380.93 208.512 1380.93 Q202.702 1380.93 199.623 1376.35 Q196.568 1371.74 196.568 1363.01 Q196.568 1354.26 199.623 1349.68 Q202.702 1345.07 208.512 1345.07 Z" fill="#000000" fill-rule="evenodd" fill-opacity="1"></path><path clip-path="url(#clip850)" d="M124.925 1120.78 L132.564 1120.78 L132.564 1094.41 L124.253 1096.08 L124.253 1091.82 L132.517 1090.16 L137.193 1090.16 L137.193 1120.78 L144.832 1120.78 L144.832 1124.72 L124.925 1124.72 L124.925 1120.78 Z" fill="#000000" fill-rule="evenodd" fill-opacity="1"></path><path clip-path="url(#clip850)" d="M158.304 1120.78 L174.623 1120.78 L174.623 1124.72 L152.679 1124.72 L152.679 1120.78 Q155.341 1118.03 159.925 1113.4 Q164.531 1108.74 165.712 1107.4 Q167.957 1104.88 168.836 1103.14 Q169.739 1101.38 169.739 1099.69 Q169.739 1096.94 167.795 1095.2 Q165.874 1093.47 162.772 1093.47 Q160.573 1093.47 158.119 1094.23 Q155.688 1094.99 152.911 1096.54 L152.911 1091.82 Q155.735 1090.69 158.188 1090.11 Q160.642 1089.53 162.679 1089.53 Q168.049 1089.53 171.244 1092.22 Q174.438 1094.9 174.438 1099.39 Q174.438 1101.52 173.628 1103.44 Q172.841 1105.34 170.735 1107.93 Q170.156 1108.6 167.054 1111.82 Q163.952 1115.02 158.304 1120.78 Z" fill="#000000" fill-rule="evenodd" fill-opacity="1"></path><path clip-path="url(#clip850)" d="M184.438 1118.84 L189.322 1118.84 L189.322 1124.72 L184.438 1124.72 L184.438 1118.84 Z" fill="#000000" fill-rule="evenodd" fill-opacity="1"></path><path clip-path="url(#clip850)" d="M199.554 1090.16 L217.91 1090.16 L217.91 1094.09 L203.836 1094.09 L203.836 1102.56 Q204.855 1102.22 205.873 1102.05 Q206.892 1101.87 207.91 1101.87 Q213.697 1101.87 217.077 1105.04 Q220.457 1108.21 220.457 1113.63 Q220.457 1119.21 216.984 1122.31 Q213.512 1125.39 207.193 1125.39 Q205.017 1125.39 202.748 1125.02 Q200.503 1124.65 198.096 1123.91 L198.096 1119.21 Q200.179 1120.34 202.401 1120.9 Q204.623 1121.45 207.1 1121.45 Q211.105 1121.45 213.443 1119.34 Q215.781 1117.24 215.781 1113.63 Q215.781 1110.02 213.443 1107.91 Q211.105 1105.8 207.1 1105.8 Q205.225 1105.8 203.35 1106.22 Q201.498 1106.64 199.554 1107.52 L199.554 1090.16 Z" fill="#000000" fill-rule="evenodd" fill-opacity="1"></path><path clip-path="url(#clip850)" d="M123.929 865.237 L131.568 865.237 L131.568 838.871 L123.258 840.538 L123.258 836.279 L131.522 834.612 L136.198 834.612 L136.198 865.237 L143.837 865.237 L143.837 869.172 L123.929 869.172 L123.929 865.237 Z" fill="#000000" fill-rule="evenodd" fill-opacity="1"></path><path clip-path="url(#clip850)" d="M153.327 834.612 L171.684 834.612 L171.684 838.547 L157.61 838.547 L157.61 847.019 Q158.628 846.672 159.647 846.51 Q160.665 846.325 161.684 846.325 Q167.471 846.325 170.85 849.496 Q174.23 852.667 174.23 858.084 Q174.23 863.663 170.758 866.765 Q167.286 869.843 160.966 869.843 Q158.79 869.843 156.522 869.473 Q154.276 869.102 151.869 868.362 L151.869 863.663 Q153.952 864.797 156.175 865.352 Q158.397 865.908 160.874 865.908 Q164.878 865.908 167.216 863.802 Q169.554 861.695 169.554 858.084 Q169.554 854.473 167.216 852.366 Q164.878 850.26 160.874 850.26 Q158.999 850.26 157.124 850.677 Q155.272 851.093 153.327 851.973 L153.327 834.612 Z" fill="#000000" fill-rule="evenodd" fill-opacity="1"></path><path clip-path="url(#clip850)" d="M183.443 863.292 L188.327 863.292 L188.327 869.172 L183.443 869.172 L183.443 863.292 Z" fill="#000000" fill-rule="evenodd" fill-opacity="1"></path><path clip-path="url(#clip850)" d="M208.512 837.691 Q204.901 837.691 203.072 841.255 Q201.267 844.797 201.267 851.927 Q201.267 859.033 203.072 862.598 Q204.901 866.14 208.512 866.14 Q212.146 866.14 213.952 862.598 Q215.781 859.033 215.781 851.927 Q215.781 844.797 213.952 841.255 Q212.146 837.691 208.512 837.691 M208.512 833.987 Q214.322 833.987 217.378 838.593 Q220.457 843.177 220.457 851.927 Q220.457 860.653 217.378 865.26 Q214.322 869.843 208.512 869.843 Q202.702 869.843 199.623 865.26 Q196.568 860.653 196.568 851.927 Q196.568 843.177 199.623 838.593 Q202.702 833.987 208.512 833.987 Z" fill="#000000" fill-rule="evenodd" fill-opacity="1"></path><path clip-path="url(#clip850)" d="M124.925 609.693 L132.564 609.693 L132.564 583.328 L124.253 584.994 L124.253 580.735 L132.517 579.069 L137.193 579.069 L137.193 609.693 L144.832 609.693 L144.832 613.629 L124.925 613.629 L124.925 609.693 Z" fill="#000000" fill-rule="evenodd" fill-opacity="1"></path><path clip-path="url(#clip850)" d="M153.096 579.069 L175.318 579.069 L175.318 581.059 L162.772 613.629 L157.887 613.629 L169.693 583.004 L153.096 583.004 L153.096 579.069 Z" fill="#000000" fill-rule="evenodd" fill-opacity="1"></path><path clip-path="url(#clip850)" d="M184.438 607.749 L189.322 607.749 L189.322 613.629 L184.438 613.629 L184.438 607.749 Z" fill="#000000" fill-rule="evenodd" fill-opacity="1"></path><path clip-path="url(#clip850)" d="M199.554 579.069 L217.91 579.069 L217.91 583.004 L203.836 583.004 L203.836 591.476 Q204.855 591.129 205.873 590.967 Q206.892 590.781 207.91 590.781 Q213.697 590.781 217.077 593.953 Q220.457 597.124 220.457 602.541 Q220.457 608.119 216.984 611.221 Q213.512 614.3 207.193 614.3 Q205.017 614.3 202.748 613.929 Q200.503 613.559 198.096 612.818 L198.096 608.119 Q200.179 609.254 202.401 609.809 Q204.623 610.365 207.1 610.365 Q211.105 610.365 213.443 608.258 Q215.781 606.152 215.781 602.541 Q215.781 598.93 213.443 596.823 Q211.105 594.717 207.1 594.717 Q205.225 594.717 203.35 595.133 Q201.498 595.55 199.554 596.43 L199.554 579.069 Z" fill="#000000" fill-rule="evenodd" fill-opacity="1"></path><path clip-path="url(#clip850)" d="M127.147 354.15 L143.466 354.15 L143.466 358.085 L121.522 358.085 L121.522 354.15 Q124.184 351.395 128.767 346.766 Q133.374 342.113 134.554 340.77 Q136.8 338.247 137.679 336.511 Q138.582 334.752 138.582 333.062 Q138.582 330.308 136.638 328.571 Q134.716 326.835 131.614 326.835 Q129.415 326.835 126.962 327.599 Q124.531 328.363 121.753 329.914 L121.753 325.192 Q124.577 324.058 127.031 323.479 Q129.485 322.9 131.522 322.9 Q136.892 322.9 140.087 325.585 Q143.281 328.27 143.281 332.761 Q143.281 334.891 142.471 336.812 Q141.684 338.71 139.577 341.303 Q138.999 341.974 135.897 345.192 Q132.795 348.386 127.147 354.15 Z" fill="#000000" fill-rule="evenodd" fill-opacity="1"></path><path clip-path="url(#clip850)" d="M163.281 326.604 Q159.67 326.604 157.841 330.169 Q156.036 333.71 156.036 340.84 Q156.036 347.946 157.841 351.511 Q159.67 355.053 163.281 355.053 Q166.915 355.053 168.721 351.511 Q170.549 347.946 170.549 340.84 Q170.549 333.71 168.721 330.169 Q166.915 326.604 163.281 326.604 M163.281 322.9 Q169.091 322.9 172.147 327.507 Q175.225 332.09 175.225 340.84 Q175.225 349.567 172.147 354.173 Q169.091 358.756 163.281 358.756 Q157.471 358.756 154.392 354.173 Q151.337 349.567 151.337 340.84 Q151.337 332.09 154.392 327.507 Q157.471 322.9 163.281 322.9 Z" fill="#000000" fill-rule="evenodd" fill-opacity="1"></path><path clip-path="url(#clip850)" d="M183.443 352.206 L188.327 352.206 L188.327 358.085 L183.443 358.085 L183.443 352.206 Z" fill="#000000" fill-rule="evenodd" fill-opacity="1"></path><path clip-path="url(#clip850)" d="M208.512 326.604 Q204.901 326.604 203.072 330.169 Q201.267 333.71 201.267 340.84 Q201.267 347.946 203.072 351.511 Q204.901 355.053 208.512 355.053 Q212.146 355.053 213.952 351.511 Q215.781 347.946 215.781 340.84 Q215.781 333.71 213.952 330.169 Q212.146 326.604 208.512 326.604 M208.512 322.9 Q214.322 322.9 217.378 327.507 Q220.457 332.09 220.457 340.84 Q220.457 349.567 217.378 354.173 Q214.322 358.756 208.512 358.756 Q202.702 358.756 199.623 354.173 Q196.568 349.567 196.568 340.84 Q196.568 332.09 199.623 327.507 Q202.702 322.9 208.512 322.9 Z" fill="#000000" fill-rule="evenodd" fill-opacity="1"></path><path clip-path="url(#clip850)" d="M32.3551 894.224 L70.4868 903.725 Q72.0005 904.111 73.643 904.111 Q76.6703 904.111 76.6703 902.114 Q76.6703 901.18 76.0584 900.407 Q75.4143 899.634 74.1583 899.055 Q72.87 898.443 71.6462 898.056 Q70.4224 897.638 68.5223 897.122 Q67.7815 896.961 67.5561 896.8 Q67.3306 896.639 67.3306 896.188 Q67.3306 895.383 67.9748 895.383 Q71.9361 896.188 74.4481 897.38 Q78.1518 899.119 78.1518 902.34 Q78.1518 904.755 76.4771 906.559 Q74.7702 908.33 72.0649 908.33 Q71.0343 908.33 69.8105 908.008 L36.8317 899.699 L35.5434 899.473 Q35.1892 899.473 34.9959 899.602 Q34.8027 899.731 34.6095 900.504 Q34.4162 901.245 34.4162 902.726 Q34.4162 903.338 34.384 903.628 Q34.3518 903.886 34.1908 904.143 Q34.0298 904.369 33.6755 904.369 Q33.0958 904.369 32.7737 904.143 Q32.4517 903.886 32.3873 903.692 Q32.3229 903.499 32.2907 903.113 Q32.2585 902.565 32.0974 900.729 Q31.9042 898.894 31.7754 897.316 Q31.6465 895.737 31.6465 895.061 Q31.6465 894.675 31.8398 894.481 Q32.0008 894.256 32.194 894.224 L32.3551 894.224 Z" fill="#000000" fill-rule="evenodd" fill-opacity="1"></path><path clip-path="url(#clip850)" d="M67.9748 852.595 Q68.2324 852.595 69.2308 852.885 Q70.2292 853.175 71.775 853.884 Q73.3209 854.56 74.738 855.494 Q76.1228 856.428 77.1534 857.974 Q78.1518 859.487 78.1518 861.227 Q78.1518 863.545 76.6059 865.091 Q75.06 866.637 72.7412 866.637 Q71.453 866.637 69.6817 865.961 Q58.2486 861.677 54.3195 861.677 Q49.714 861.677 49.714 865.252 Q49.714 867.024 50.3904 868.698 Q51.0345 870.341 51.9362 871.468 Q52.838 872.595 54.094 873.626 Q55.3178 874.624 56.1552 875.139 Q56.9603 875.623 57.7655 876.009 L61.0505 876.846 Q61.9523 877.04 65.4627 877.974 L71.4208 879.423 Q75.8652 880.453 76.2839 880.679 Q77.1856 881.001 77.6687 881.709 Q78.1518 882.418 78.1518 883.127 Q78.1518 883.932 77.6687 884.479 Q77.1856 885.027 76.3483 885.027 Q76.2195 885.027 75.7364 884.93 Q75.2533 884.833 74.577 884.672 Q73.9006 884.511 73.5142 884.447 L58.2808 880.614 Q55.5111 879.906 54.6415 879.745 Q53.7398 879.552 52.7414 879.552 Q49.714 879.552 49.714 881.613 Q49.714 883.288 51.7108 884.383 Q53.7076 885.478 57.5723 886.412 Q58.6351 886.701 58.8605 886.895 Q59.0859 887.056 59.0859 887.539 Q59.0537 888.344 58.4096 888.344 Q58.2486 888.344 57.1858 888.086 Q56.123 887.829 54.6093 887.346 Q53.0634 886.83 52.0329 886.347 Q51.2599 885.928 50.9056 885.703 Q50.5192 885.445 49.7784 884.833 Q49.0055 884.189 48.6512 883.352 Q48.2648 882.482 48.2648 881.42 Q48.2648 879.036 49.8106 877.297 Q51.3243 875.558 53.9974 875.333 Q48.2648 871.049 48.2648 865.059 Q48.2648 861.516 50.1327 859.487 Q52.0006 857.458 55.3178 857.458 Q56.0908 857.458 57.0892 857.619 Q58.0553 857.748 59.2792 858.07 Q60.503 858.36 61.437 858.618 Q62.3709 858.876 63.8846 859.391 Q65.3661 859.906 66.0102 860.132 Q66.6543 860.357 68.168 860.904 Q69.6495 861.42 69.8105 861.484 Q72.8056 862.676 74.5125 862.676 Q75.6397 862.676 76.155 862.322 Q76.6703 861.935 76.6703 861.098 Q76.6703 858.843 74.4481 857.169 Q72.1937 855.462 68.5223 854.367 Q67.7171 854.109 67.5239 853.98 Q67.3306 853.819 67.3306 853.368 Q67.3306 852.595 67.9748 852.595 Z" fill="#000000" fill-rule="evenodd" fill-opacity="1"></path><path clip-path="url(#clip850)" d="M60.9217 843.629 Q49.7784 843.629 40.793 839.474 Q37.0249 837.703 33.8687 835.223 Q30.7126 832.743 29.3277 831.1 Q27.9429 829.458 27.9429 829.007 Q27.9429 828.363 28.587 828.331 Q28.909 828.331 29.7142 829.2 Q40.5354 839.828 60.9217 839.796 Q81.3724 839.796 91.7749 829.458 Q92.9021 828.331 93.2564 828.331 Q93.9005 828.331 93.9005 829.007 Q93.9005 829.458 92.58 831.036 Q91.2596 832.614 88.2322 835.062 Q85.2049 837.509 81.5012 839.281 Q72.5158 843.629 60.9217 843.629 Z" fill="#000000" fill-rule="evenodd" fill-opacity="1"></path><path clip-path="url(#clip850)" d="M39.7624 819.621 L37.7012 819.621 Q37.7012 811.698 33.4823 807.608 Q33.4823 806.481 33.7399 806.288 Q33.9976 806.095 35.1892 806.095 L72.1937 806.095 Q74.1583 806.095 74.7702 805.128 Q75.3821 804.162 75.3821 799.943 L75.3821 797.85 L77.4111 797.85 Q77.2178 800.169 77.2178 808.542 Q77.2178 816.916 77.4111 819.202 L75.3821 819.202 L75.3821 817.109 Q75.3821 812.955 74.8024 811.956 Q74.1905 810.958 72.1937 810.958 L38.0233 810.958 Q39.7624 814.404 39.7624 819.621 Z" fill="#000000" fill-rule="evenodd" fill-opacity="1"></path><path clip-path="url(#clip850)" d="M56.3162 786.957 Q46.6223 786.957 41.3405 784.509 Q33.4823 781.096 33.4823 773.044 Q33.4823 771.337 33.9654 769.566 Q34.4162 767.762 36.1876 765.508 Q37.9589 763.221 40.8574 761.836 Q46.4612 759.196 56.3162 759.196 Q65.9458 759.196 71.1953 761.643 Q78.8603 765.218 78.8603 773.109 Q78.8603 776.071 77.3467 779.099 Q75.833 782.094 72.1937 783.994 Q66.7509 786.957 56.3162 786.957 M55.5111 781.482 Q65.4627 781.482 69.424 780.774 Q73.7074 779.968 75.5753 777.778 Q77.4111 775.556 77.4111 773.109 Q77.4111 770.468 75.4465 768.278 Q73.4497 766.055 69.1664 765.379 Q64.9474 764.638 55.5111 764.671 Q46.3324 764.671 42.6609 765.315 Q38.3776 766.184 36.6707 768.503 Q34.9315 770.79 34.9315 773.109 Q34.9315 773.978 35.1892 774.912 Q35.4468 775.814 36.1876 777.134 Q36.9283 778.455 38.764 779.485 Q40.5998 780.484 43.3695 780.967 Q46.9443 781.482 55.5111 781.482 Z" fill="#000000" fill-rule="evenodd" fill-opacity="1"></path><path clip-path="url(#clip850)" d="M29.8311 721.953 Q30.1016 721.683 30.4849 721.683 Q30.8681 721.683 31.1387 721.953 Q31.4092 722.224 31.4092 722.607 L31.4092 751.508 Q31.4092 751.892 31.1387 752.162 Q30.8681 752.433 30.4849 752.433 Q30.1016 752.433 29.8311 752.162 Q29.5606 751.892 29.5606 751.508 L29.5606 722.607 Q29.5606 722.224 29.8311 721.953 Z" fill="#000000" fill-rule="evenodd" fill-opacity="1"></path><path clip-path="url(#clip850)" d="M21.6702 716.863 Q19.2128 716.863 17.5446 716.141 Q15.8538 715.42 14.1855 713.909 Q11.2773 711.136 11.2773 707.124 Q11.2773 705.41 11.9987 703.9 Q12.7201 702.367 14.3659 700.924 Q15.989 699.459 19.2128 698.579 Q22.4141 697.7 26.8327 697.7 Q33.9792 697.7 38.5106 701.172 Q43.042 704.621 43.042 709.288 Q43.042 712.241 41.7119 713.977 Q40.3592 715.713 38.0597 715.713 Q36.8649 715.713 36.3689 715.037 Q35.8504 714.36 35.8504 713.594 Q35.8504 712.76 36.414 712.106 Q36.9551 711.452 37.9695 711.452 Q38.8037 711.452 39.4574 711.993 Q40.0887 712.512 40.0887 713.864 Q41.7569 712.534 41.7569 709.333 Q41.7569 708.183 41.2384 707.033 Q40.6974 705.884 39.4124 704.644 Q38.1048 703.381 35.377 702.615 Q32.6491 701.848 28.8166 701.848 L27.3513 701.848 Q31.9728 703.697 31.9728 707.62 Q31.9728 711.497 28.997 714.18 Q26.0212 716.863 21.6702 716.863 M21.7152 712.715 Q26.2917 712.715 27.9825 711.88 Q30.8907 710.46 30.8907 707.575 Q30.8907 704.756 28.3883 703.359 Q25.8634 701.938 22.5945 701.938 Q18.0631 701.938 16.0792 702.682 Q12.4271 704.058 12.4271 707.124 Q12.4271 710.167 15.3353 711.745 Q17.0486 712.715 21.7152 712.715 Z" fill="#000000" fill-rule="evenodd" fill-opacity="1"></path><path clip-path="url(#clip850)" d="M93.2564 686.958 Q92.9343 686.958 92.1291 686.12 Q81.308 675.493 60.9217 675.493 Q40.4709 675.493 30.1329 685.702 Q28.9412 686.958 28.587 686.958 Q27.9429 686.958 27.9429 686.314 Q27.9429 685.863 29.2633 684.285 Q30.5837 682.674 33.6111 680.259 Q36.6384 677.811 40.3421 676.008 Q49.3276 671.66 60.9217 671.66 Q72.0649 671.66 81.0503 675.815 Q84.8184 677.586 87.9746 680.066 Q91.1308 682.546 92.5156 684.188 Q93.9005 685.831 93.9005 686.314 Q93.9005 686.958 93.2564 686.958 Z" fill="#000000" fill-rule="evenodd" fill-opacity="1"></path><path clip-path="url(#clip850)" d="M53.933 638.403 Q55.7365 638.403 56.7027 639.305 Q57.6367 640.207 57.6367 641.431 Q57.6367 642.429 57.057 642.976 Q56.4773 643.492 55.7043 643.492 Q54.5771 643.492 53.6753 642.59 Q52.7736 641.656 52.7414 640.303 Q51.5498 640.754 50.8412 641.946 Q50.1005 643.137 49.9073 644.2 Q49.714 645.231 49.714 646.261 Q49.714 648.29 50.3581 649.836 Q51.0023 651.382 52.0006 652.155 Q52.9668 652.928 53.9008 653.282 Q54.8348 653.637 55.6399 653.637 Q56.3484 653.637 56.9281 653.476 Q57.4756 653.282 57.8943 652.831 Q58.2808 652.381 58.5384 652.058 Q58.7961 651.704 59.0215 650.931 Q59.247 650.158 59.3436 649.836 Q59.408 649.514 59.6012 648.612 Q59.9877 646.745 60.2131 645.907 Q60.4064 645.07 60.9539 643.975 Q61.5014 642.848 62.3709 642.01 Q64.3999 639.981 67.2018 639.981 Q68.2324 639.981 69.4884 640.336 Q70.7445 640.658 72.3225 641.592 Q73.9006 642.526 75.1567 643.943 Q76.4127 645.36 77.2822 647.807 Q78.1518 650.223 78.1518 653.25 Q78.1518 657.469 76.3805 660.078 Q74.577 662.686 71.7428 662.686 Q69.6817 662.686 68.5545 661.559 Q67.395 660.432 67.395 658.983 Q67.395 657.888 68.007 657.211 Q68.5867 656.535 69.6817 656.535 Q71.1631 656.535 72.2903 657.727 Q73.4175 658.918 73.1921 660.69 Q76.6703 659.176 76.6703 653.186 Q76.6703 650.931 76.0906 649.192 Q75.4787 647.421 74.6414 646.455 Q73.7718 645.456 72.709 644.812 Q71.6462 644.168 70.8411 643.975 Q70.0359 643.749 69.424 643.749 Q68.3612 643.749 67.5561 644.168 Q66.7509 644.587 66.3 645.166 Q65.817 645.714 65.4305 646.777 Q65.0118 647.807 64.8508 648.548 Q64.6898 649.289 64.4321 650.609 Q64.3033 651.221 64.2389 651.608 Q64.1423 651.994 63.8846 652.799 Q63.5948 653.572 63.3049 654.12 Q63.015 654.635 62.4998 655.311 Q61.9845 655.988 61.3725 656.406 Q60.7606 656.825 59.8589 657.115 Q58.9571 657.405 57.8943 657.405 Q56.9281 657.405 55.7687 657.115 Q54.6093 656.793 53.2567 655.988 Q51.904 655.15 50.809 653.959 Q49.714 652.767 49.0055 650.77 Q48.2648 648.741 48.2648 646.261 Q48.2648 642.654 49.9395 640.529 Q51.582 638.403 53.933 638.403 Z" fill="#000000" fill-rule="evenodd" fill-opacity="1"></path><path clip-path="url(#clip850)" d="M296.215 43.6931 L296.215 65.8515 L309.34 65.8515 Q315.943 65.8515 319.102 63.1374 Q322.302 60.3828 322.302 54.752 Q322.302 49.0808 319.102 46.4072 Q315.943 43.6931 309.34 43.6931 L296.215 43.6931 M296.215 18.8205 L296.215 37.0496 L308.327 37.0496 Q314.322 37.0496 317.239 34.8216 Q320.196 32.5531 320.196 27.935 Q320.196 23.3575 317.239 21.089 Q314.322 18.8205 308.327 18.8205 L296.215 18.8205 M288.032 12.096 L308.934 12.096 Q318.292 12.096 323.356 15.9849 Q328.419 19.8737 328.419 27.0438 Q328.419 32.5936 325.827 35.8748 Q323.234 39.156 318.211 39.9662 Q324.247 41.2625 327.569 45.3944 Q330.931 49.4858 330.931 55.6432 Q330.931 63.745 325.422 68.1605 Q319.912 72.576 309.745 72.576 L288.032 72.576 L288.032 12.096 Z" fill="#000000" fill-rule="evenodd" fill-opacity="1"></path><path clip-path="url(#clip850)" d="M383.431 48.0275 L383.431 51.6733 L349.16 51.6733 Q349.646 59.3701 353.778 63.421 Q357.95 67.4314 365.364 67.4314 Q369.658 67.4314 373.668 66.3781 Q377.719 65.3249 381.689 63.2184 L381.689 70.267 Q377.678 71.9684 373.465 72.8596 Q369.252 73.7508 364.918 73.7508 Q354.062 73.7508 347.702 67.4314 Q341.382 61.1119 341.382 50.3365 Q341.382 39.1965 347.378 32.6746 Q353.413 26.1121 363.622 26.1121 Q372.777 26.1121 378.083 32.0264 Q383.431 37.9003 383.431 48.0275 M375.977 45.84 Q375.896 39.7232 372.534 36.0774 Q369.212 32.4315 363.703 32.4315 Q357.464 32.4315 353.697 35.9558 Q349.97 39.4801 349.403 45.8805 L375.977 45.84 Z" fill="#000000" fill-rule="evenodd" fill-opacity="1"></path><path clip-path="url(#clip850)" d="M433.378 45.1919 L433.378 72.576 L425.925 72.576 L425.925 45.4349 Q425.925 38.994 423.413 35.7938 Q420.901 32.5936 415.878 32.5936 Q409.843 32.5936 406.359 36.4419 Q402.875 40.2903 402.875 46.9338 L402.875 72.576 L395.381 72.576 L395.381 27.2059 L402.875 27.2059 L402.875 34.2544 Q405.549 30.163 409.154 28.1376 Q412.8 26.1121 417.539 26.1121 Q425.357 26.1121 429.368 30.9732 Q433.378 35.7938 433.378 45.1919 Z" fill="#000000" fill-rule="evenodd" fill-opacity="1"></path><path clip-path="url(#clip850)" d="M480.895 28.9478 L480.895 35.9153 Q477.736 34.1734 474.535 33.3227 Q471.376 32.4315 468.135 32.4315 Q460.884 32.4315 456.874 37.0496 Q452.863 41.6271 452.863 49.9314 Q452.863 58.2358 456.874 62.8538 Q460.884 67.4314 468.135 67.4314 Q471.376 67.4314 474.535 66.5807 Q477.736 65.6895 480.895 63.9476 L480.895 70.8341 Q477.776 72.2924 474.414 73.0216 Q471.092 73.7508 467.325 73.7508 Q457.076 73.7508 451.04 67.3098 Q445.004 60.8689 445.004 49.9314 Q445.004 38.832 451.081 32.472 Q457.198 26.1121 467.811 26.1121 Q471.254 26.1121 474.535 26.8413 Q477.817 27.5299 480.895 28.9478 Z" fill="#000000" fill-rule="evenodd" fill-opacity="1"></path><path clip-path="url(#clip850)" d="M531.572 45.1919 L531.572 72.576 L524.119 72.576 L524.119 45.4349 Q524.119 38.994 521.607 35.7938 Q519.095 32.5936 514.072 32.5936 Q508.036 32.5936 504.553 36.4419 Q501.069 40.2903 501.069 46.9338 L501.069 72.576 L493.575 72.576 L493.575 9.54393 L501.069 9.54393 L501.069 34.2544 Q503.742 30.163 507.348 28.1376 Q510.994 26.1121 515.733 26.1121 Q523.551 26.1121 527.562 30.9732 Q531.572 35.7938 531.572 45.1919 Z" fill="#000000" fill-rule="evenodd" fill-opacity="1"></path><path clip-path="url(#clip850)" d="M581.763 35.9153 Q584.558 30.8922 588.447 28.5022 Q592.336 26.1121 597.602 26.1121 Q604.691 26.1121 608.539 31.0947 Q612.388 36.0368 612.388 45.1919 L612.388 72.576 L604.894 72.576 L604.894 45.4349 Q604.894 38.913 602.585 35.7533 Q600.276 32.5936 595.536 32.5936 Q589.743 32.5936 586.381 36.4419 Q583.019 40.2903 583.019 46.9338 L583.019 72.576 L575.525 72.576 L575.525 45.4349 Q575.525 38.8725 573.215 35.7533 Q570.906 32.5936 566.086 32.5936 Q560.374 32.5936 557.012 36.4824 Q553.65 40.3308 553.65 46.9338 L553.65 72.576 L546.155 72.576 L546.155 27.2059 L553.65 27.2059 L553.65 34.2544 Q556.202 30.082 559.766 28.0971 Q563.331 26.1121 568.233 26.1121 Q573.175 26.1121 576.618 28.6237 Q580.102 31.1352 581.763 35.9153 Z" fill="#000000" fill-rule="evenodd" fill-opacity="1"></path><path clip-path="url(#clip850)" d="M647.874 49.7694 Q638.84 49.7694 635.356 51.8354 Q631.873 53.9013 631.873 58.8839 Q631.873 62.8538 634.465 65.2034 Q637.098 67.5124 641.595 67.5124 Q647.793 67.5124 651.519 63.1374 Q655.287 58.7219 655.287 51.4303 L655.287 49.7694 L647.874 49.7694 M662.74 46.6907 L662.74 72.576 L655.287 72.576 L655.287 65.6895 Q652.735 69.8214 648.927 71.8063 Q645.119 73.7508 639.61 73.7508 Q632.642 73.7508 628.51 69.8619 Q624.419 65.9325 624.419 59.3701 Q624.419 51.7138 629.523 47.825 Q634.668 43.9361 644.835 43.9361 L655.287 43.9361 L655.287 43.2069 Q655.287 38.0623 651.884 35.2672 Q648.522 32.4315 642.405 32.4315 Q638.516 32.4315 634.83 33.3632 Q631.143 34.295 627.741 36.1584 L627.741 29.2718 Q631.832 27.692 635.68 26.9223 Q639.529 26.1121 643.175 26.1121 Q653.018 26.1121 657.879 31.2163 Q662.74 36.3204 662.74 46.6907 Z" fill="#000000" fill-rule="evenodd" fill-opacity="1"></path><path clip-path="url(#clip850)" d="M704.384 34.1734 Q703.128 33.4443 701.629 33.1202 Q700.171 32.7556 698.388 32.7556 Q692.069 32.7556 688.666 36.8875 Q685.304 40.9789 685.304 48.6757 L685.304 72.576 L677.81 72.576 L677.81 27.2059 L685.304 27.2059 L685.304 34.2544 Q687.654 30.1225 691.421 28.1376 Q695.188 26.1121 700.576 26.1121 Q701.346 26.1121 702.277 26.2337 Q703.209 26.3147 704.343 26.5172 L704.384 34.1734 Z" fill="#000000" fill-rule="evenodd" fill-opacity="1"></path><path clip-path="url(#clip850)" d="M711.918 9.54393 L719.413 9.54393 L719.413 46.7717 L741.652 27.2059 L751.172 27.2059 L727.109 48.4326 L752.184 72.576 L742.462 72.576 L719.413 50.4176 L719.413 72.576 L711.918 72.576 L711.918 9.54393 Z" fill="#000000" fill-rule="evenodd" fill-opacity="1"></path><path clip-path="url(#clip850)" d="M819.267 28.9478 L819.267 35.9153 Q816.108 34.1734 812.907 33.3227 Q809.748 32.4315 806.507 32.4315 Q799.256 32.4315 795.246 37.0496 Q791.235 41.6271 791.235 49.9314 Q791.235 58.2358 795.246 62.8538 Q799.256 67.4314 806.507 67.4314 Q809.748 67.4314 812.907 66.5807 Q816.108 65.6895 819.267 63.9476 L819.267 70.8341 Q816.148 72.2924 812.786 73.0216 Q809.464 73.7508 805.697 73.7508 Q795.448 73.7508 789.412 67.3098 Q783.376 60.8689 783.376 49.9314 Q783.376 38.832 789.453 32.472 Q795.57 26.1121 806.183 26.1121 Q809.626 26.1121 812.907 26.8413 Q816.189 27.5299 819.267 28.9478 Z" fill="#000000" fill-rule="evenodd" fill-opacity="1"></path><path clip-path="url(#clip850)" d="M849.811 32.4315 Q843.816 32.4315 840.332 37.1306 Q836.848 41.7891 836.848 49.9314 Q836.848 58.0738 840.292 62.7728 Q843.775 67.4314 849.811 67.4314 Q855.766 67.4314 859.25 62.7323 Q862.734 58.0333 862.734 49.9314 Q862.734 41.8701 859.25 37.1711 Q855.766 32.4315 849.811 32.4315 M849.811 26.1121 Q859.533 26.1121 865.083 32.4315 Q870.633 38.7509 870.633 49.9314 Q870.633 61.0714 865.083 67.4314 Q859.533 73.7508 849.811 73.7508 Q840.049 73.7508 834.499 67.4314 Q828.99 61.0714 828.99 49.9314 Q828.99 38.7509 834.499 32.4315 Q840.049 26.1121 849.811 26.1121 Z" fill="#000000" fill-rule="evenodd" fill-opacity="1"></path><path clip-path="url(#clip850)" d="M918.312 35.9153 Q921.107 30.8922 924.996 28.5022 Q928.885 26.1121 934.151 26.1121 Q941.24 26.1121 945.088 31.0947 Q948.937 36.0368 948.937 45.1919 L948.937 72.576 L941.443 72.576 L941.443 45.4349 Q941.443 38.913 939.134 35.7533 Q936.825 32.5936 932.085 32.5936 Q926.292 32.5936 922.93 36.4419 Q919.568 40.2903 919.568 46.9338 L919.568 72.576 L912.074 72.576 L912.074 45.4349 Q912.074 38.8725 909.765 35.7533 Q907.456 32.5936 902.635 32.5936 Q896.923 32.5936 893.561 36.4824 Q890.199 40.3308 890.199 46.9338 L890.199 72.576 L882.705 72.576 L882.705 27.2059 L890.199 27.2059 L890.199 34.2544 Q892.751 30.082 896.316 28.0971 Q899.88 26.1121 904.782 26.1121 Q909.724 26.1121 913.167 28.6237 Q916.651 31.1352 918.312 35.9153 Z" fill="#000000" fill-rule="evenodd" fill-opacity="1"></path><path clip-path="url(#clip850)" d="M971.014 65.7705 L971.014 89.8329 L963.52 89.8329 L963.52 27.2059 L971.014 27.2059 L971.014 34.0924 Q973.364 30.0415 976.929 28.0971 Q980.534 26.1121 985.517 26.1121 Q993.78 26.1121 998.925 32.6746 Q1004.11 39.2371 1004.11 49.9314 Q1004.11 60.6258 998.925 67.1883 Q993.78 73.7508 985.517 73.7508 Q980.534 73.7508 976.929 71.8063 Q973.364 69.8214 971.014 65.7705 M996.373 49.9314 Q996.373 41.7081 992.97 37.0496 Q989.608 32.3505 983.694 32.3505 Q977.779 32.3505 974.377 37.0496 Q971.014 41.7081 971.014 49.9314 Q971.014 58.1548 974.377 62.8538 Q977.779 67.5124 983.694 67.5124 Q989.608 67.5124 992.97 62.8538 Q996.373 58.1548 996.373 49.9314 Z" fill="#000000" fill-rule="evenodd" fill-opacity="1"></path><path clip-path="url(#clip850)" d="M1037.08 49.7694 Q1028.05 49.7694 1024.57 51.8354 Q1021.08 53.9013 1021.08 58.8839 Q1021.08 62.8538 1023.68 65.2034 Q1026.31 67.5124 1030.81 67.5124 Q1037 67.5124 1040.73 63.1374 Q1044.5 58.7219 1044.5 51.4303 L1044.5 49.7694 L1037.08 49.7694 M1051.95 46.6907 L1051.95 72.576 L1044.5 72.576 L1044.5 65.6895 Q1041.95 69.8214 1038.14 71.8063 Q1034.33 73.7508 1028.82 73.7508 Q1021.85 73.7508 1017.72 69.8619 Q1013.63 65.9325 1013.63 59.3701 Q1013.63 51.7138 1018.73 47.825 Q1023.88 43.9361 1034.05 43.9361 L1044.5 43.9361 L1044.5 43.2069 Q1044.5 38.0623 1041.09 35.2672 Q1037.73 32.4315 1031.62 32.4315 Q1027.73 32.4315 1024.04 33.3632 Q1020.35 34.295 1016.95 36.1584 L1016.95 29.2718 Q1021.04 27.692 1024.89 26.9223 Q1028.74 26.1121 1032.39 26.1121 Q1042.23 26.1121 1047.09 31.2163 Q1051.95 36.3204 1051.95 46.6907 Z" fill="#000000" fill-rule="evenodd" fill-opacity="1"></path><path clip-path="url(#clip850)" d="M1093.59 34.1734 Q1092.34 33.4443 1090.84 33.1202 Q1089.38 32.7556 1087.6 32.7556 Q1081.28 32.7556 1077.88 36.8875 Q1074.51 40.9789 1074.51 48.6757 L1074.51 72.576 L1067.02 72.576 L1067.02 27.2059 L1074.51 27.2059 L1074.51 34.2544 Q1076.86 30.1225 1080.63 28.1376 Q1084.4 26.1121 1089.79 26.1121 Q1090.56 26.1121 1091.49 26.2337 Q1092.42 26.3147 1093.55 26.5172 L1093.59 34.1734 Z" fill="#000000" fill-rule="evenodd" fill-opacity="1"></path><path clip-path="url(#clip850)" d="M1101.41 27.2059 L1108.87 27.2059 L1108.87 72.576 L1101.41 72.576 L1101.41 27.2059 M1101.41 9.54393 L1108.87 9.54393 L1108.87 18.9825 L1101.41 18.9825 L1101.41 9.54393 Z" fill="#000000" fill-rule="evenodd" fill-opacity="1"></path><path clip-path="url(#clip850)" d="M1153.39 28.5427 L1153.39 35.5912 Q1150.23 33.9709 1146.82 33.1607 Q1143.42 32.3505 1139.77 32.3505 Q1134.23 32.3505 1131.43 34.0519 Q1128.68 35.7533 1128.68 39.156 Q1128.68 41.7486 1130.66 43.2475 Q1132.65 44.7058 1138.64 46.0426 L1141.19 46.6097 Q1149.13 48.3111 1152.45 51.4303 Q1155.82 54.509 1155.82 60.0587 Q1155.82 66.3781 1150.79 70.0644 Q1145.81 73.7508 1137.06 73.7508 Q1133.42 73.7508 1129.45 73.0216 Q1125.52 72.3329 1121.14 70.9151 L1121.14 63.2184 Q1125.27 65.3654 1129.28 66.4591 Q1133.29 67.5124 1137.22 67.5124 Q1142.49 67.5124 1145.32 65.73 Q1148.16 63.9071 1148.16 60.6258 Q1148.16 57.5877 1146.09 55.9673 Q1144.07 54.3469 1137.14 52.8481 L1134.55 52.2405 Q1127.62 50.7821 1124.54 47.7845 Q1121.46 44.7463 1121.46 39.4801 Q1121.46 33.0797 1126 29.5959 Q1130.54 26.1121 1138.88 26.1121 Q1143.02 26.1121 1146.66 26.7198 Q1150.31 27.3274 1153.39 28.5427 Z" fill="#000000" fill-rule="evenodd" fill-opacity="1"></path><path clip-path="url(#clip850)" d="M1185.27 32.4315 Q1179.27 32.4315 1175.79 37.1306 Q1172.3 41.7891 1172.3 49.9314 Q1172.3 58.0738 1175.75 62.7728 Q1179.23 67.4314 1185.27 67.4314 Q1191.22 67.4314 1194.71 62.7323 Q1198.19 58.0333 1198.19 49.9314 Q1198.19 41.8701 1194.71 37.1711 Q1191.22 32.4315 1185.27 32.4315 M1185.27 26.1121 Q1194.99 26.1121 1200.54 32.4315 Q1206.09 38.7509 1206.09 49.9314 Q1206.09 61.0714 1200.54 67.4314 Q1194.99 73.7508 1185.27 73.7508 Q1175.5 73.7508 1169.95 67.4314 Q1164.44 61.0714 1164.44 49.9314 Q1164.44 38.7509 1169.95 32.4315 Q1175.5 26.1121 1185.27 26.1121 Z" fill="#000000" fill-rule="evenodd" fill-opacity="1"></path><path clip-path="url(#clip850)" d="M1256.16 45.1919 L1256.16 72.576 L1248.7 72.576 L1248.7 45.4349 Q1248.7 38.994 1246.19 35.7938 Q1243.68 32.5936 1238.66 32.5936 Q1232.62 32.5936 1229.14 36.4419 Q1225.65 40.2903 1225.65 46.9338 L1225.65 72.576 L1218.16 72.576 L1218.16 27.2059 L1225.65 27.2059 L1225.65 34.2544 Q1228.33 30.163 1231.93 28.1376 Q1235.58 26.1121 1240.32 26.1121 Q1248.14 26.1121 1252.15 30.9732 Q1256.16 35.7938 1256.16 45.1919 Z" fill="#000000" fill-rule="evenodd" fill-opacity="1"></path><path clip-path="url(#clip850)" d="M1314.98 32.4315 Q1308.98 32.4315 1305.5 37.1306 Q1302.01 41.7891 1302.01 49.9314 Q1302.01 58.0738 1305.46 62.7728 Q1308.94 67.4314 1314.98 67.4314 Q1320.93 67.4314 1324.42 62.7323 Q1327.9 58.0333 1327.9 49.9314 Q1327.9 41.8701 1324.42 37.1711 Q1320.93 32.4315 1314.98 32.4315 M1314.98 26.1121 Q1324.7 26.1121 1330.25 32.4315 Q1335.8 38.7509 1335.8 49.9314 Q1335.8 61.0714 1330.25 67.4314 Q1324.7 73.7508 1314.98 73.7508 Q1305.21 73.7508 1299.66 67.4314 Q1294.15 61.0714 1294.15 49.9314 Q1294.15 38.7509 1299.66 32.4315 Q1305.21 26.1121 1314.98 26.1121 Z" fill="#000000" fill-rule="evenodd" fill-opacity="1"></path><path clip-path="url(#clip850)" d="M1371.12 9.54393 L1371.12 15.7418 L1363.99 15.7418 Q1359.98 15.7418 1358.4 17.3622 Q1356.86 18.9825 1356.86 23.1955 L1356.86 27.2059 L1369.14 27.2059 L1369.14 32.9987 L1356.86 32.9987 L1356.86 72.576 L1349.37 72.576 L1349.37 32.9987 L1342.24 32.9987 L1342.24 27.2059 L1349.37 27.2059 L1349.37 24.0462 Q1349.37 16.471 1352.89 13.0277 Q1356.42 9.54393 1364.07 9.54393 L1371.12 9.54393 Z" fill="#000000" fill-rule="evenodd" fill-opacity="1"></path><path clip-path="url(#clip850)" d="M1411.83 65.6895 L1440.39 65.6895 L1440.39 72.576 L1401.99 72.576 L1401.99 65.6895 Q1406.65 60.8689 1414.67 52.7671 Q1422.73 44.6248 1424.8 42.2752 Q1428.73 37.8598 1430.27 34.8216 Q1431.85 31.7429 1431.85 28.7857 Q1431.85 23.9651 1428.44 20.927 Q1425.08 17.8888 1419.65 17.8888 Q1415.8 17.8888 1411.51 19.2256 Q1407.26 20.5624 1402.4 23.2765 L1402.4 15.0127 Q1407.34 13.0277 1411.63 12.015 Q1415.93 11.0023 1419.49 11.0023 Q1428.89 11.0023 1434.48 15.7013 Q1440.07 20.4004 1440.07 28.2591 Q1440.07 31.9859 1438.65 35.3482 Q1437.27 38.6699 1433.59 43.2069 Q1432.57 44.3817 1427.15 50.0125 Q1421.72 55.6027 1411.83 65.6895 Z" fill="#000000" fill-rule="evenodd" fill-opacity="1"></path><path clip-path="url(#clip850)" d="M1465.02 18.8205 L1465.02 65.8515 L1474.91 65.8515 Q1487.42 65.8515 1493.22 60.1802 Q1499.05 54.509 1499.05 42.2752 Q1499.05 30.1225 1493.22 24.4918 Q1487.42 18.8205 1474.91 18.8205 L1465.02 18.8205 M1456.84 12.096 L1473.65 12.096 Q1491.23 12.096 1499.45 19.4281 Q1507.68 26.7198 1507.68 42.2752 Q1507.68 57.9117 1499.41 65.2439 Q1491.15 72.576 1473.65 72.576 L1456.84 72.576 L1456.84 12.096 Z" fill="#000000" fill-rule="evenodd" fill-opacity="1"></path><path clip-path="url(#clip850)" d="M1555.28 18.8205 L1555.28 41.5461 L1565.57 41.5461 Q1571.28 41.5461 1574.4 38.5889 Q1577.52 35.6318 1577.52 30.163 Q1577.52 24.7348 1574.4 21.7777 Q1571.28 18.8205 1565.57 18.8205 L1555.28 18.8205 M1547.09 12.096 L1565.57 12.096 Q1575.73 12.096 1580.92 16.714 Q1586.14 21.2916 1586.14 30.163 Q1586.14 39.1155 1580.92 43.6931 Q1575.73 48.2706 1565.57 48.2706 L1555.28 48.2706 L1555.28 72.576 L1547.09 72.576 L1547.09 12.096 Z" fill="#000000" fill-rule="evenodd" fill-opacity="1"></path><path clip-path="url(#clip850)" d="M1596.8 9.54393 L1604.25 9.54393 L1604.25 72.576 L1596.8 72.576 L1596.8 9.54393 Z" fill="#000000" fill-rule="evenodd" fill-opacity="1"></path><path clip-path="url(#clip850)" d="M1640.47 49.7694 Q1631.43 49.7694 1627.95 51.8354 Q1624.47 53.9013 1624.47 58.8839 Q1624.47 62.8538 1627.06 65.2034 Q1629.69 67.5124 1634.19 67.5124 Q1640.39 67.5124 1644.11 63.1374 Q1647.88 58.7219 1647.88 51.4303 L1647.88 49.7694 L1640.47 49.7694 M1655.33 46.6907 L1655.33 72.576 L1647.88 72.576 L1647.88 65.6895 Q1645.33 69.8214 1641.52 71.8063 Q1637.71 73.7508 1632.2 73.7508 Q1625.24 73.7508 1621.1 69.8619 Q1617.01 65.9325 1617.01 59.3701 Q1617.01 51.7138 1622.12 47.825 Q1627.26 43.9361 1637.43 43.9361 L1647.88 43.9361 L1647.88 43.2069 Q1647.88 38.0623 1644.48 35.2672 Q1641.11 32.4315 1635 32.4315 Q1631.11 32.4315 1627.42 33.3632 Q1623.74 34.295 1620.33 36.1584 L1620.33 29.2718 Q1624.43 27.692 1628.27 26.9223 Q1632.12 26.1121 1635.77 26.1121 Q1645.61 26.1121 1650.47 31.2163 Q1655.33 36.3204 1655.33 46.6907 Z" fill="#000000" fill-rule="evenodd" fill-opacity="1"></path><path clip-path="url(#clip850)" d="M1675.14 49.9314 Q1675.14 58.1548 1678.5 62.8538 Q1681.91 67.5124 1687.82 67.5124 Q1693.74 67.5124 1697.14 62.8538 Q1700.54 58.1548 1700.54 49.9314 Q1700.54 41.7081 1697.14 37.0496 Q1693.74 32.3505 1687.82 32.3505 Q1681.91 32.3505 1678.5 37.0496 Q1675.14 41.7081 1675.14 49.9314 M1700.54 65.7705 Q1698.19 69.8214 1694.59 71.8063 Q1691.02 73.7508 1686 73.7508 Q1677.78 73.7508 1672.59 67.1883 Q1667.45 60.6258 1667.45 49.9314 Q1667.45 39.2371 1672.59 32.6746 Q1677.78 26.1121 1686 26.1121 Q1691.02 26.1121 1694.59 28.0971 Q1698.19 30.0415 1700.54 34.0924 L1700.54 27.2059 L1708 27.2059 L1708 89.8329 L1700.54 89.8329 L1700.54 65.7705 Z" fill="#000000" fill-rule="evenodd" fill-opacity="1"></path><path clip-path="url(#clip850)" d="M1722.58 54.671 L1722.58 27.2059 L1730.03 27.2059 L1730.03 54.3874 Q1730.03 60.8284 1732.54 64.0691 Q1735.06 67.2693 1740.08 67.2693 Q1746.11 67.2693 1749.6 63.421 Q1753.12 59.5726 1753.12 52.9291 L1753.12 27.2059 L1760.58 27.2059 L1760.58 72.576 L1753.12 72.576 L1753.12 65.6084 Q1750.41 69.7404 1746.8 71.7658 Q1743.24 73.7508 1738.5 73.7508 Q1730.68 73.7508 1726.63 68.8897 Q1722.58 64.0286 1722.58 54.671 M1741.33 26.1121 L1741.33 26.1121 Z" fill="#000000" fill-rule="evenodd" fill-opacity="1"></path><path clip-path="url(#clip850)" d="M1814.74 48.0275 L1814.74 51.6733 L1780.47 51.6733 Q1780.95 59.3701 1785.08 63.421 Q1789.26 67.4314 1796.67 67.4314 Q1800.96 67.4314 1804.97 66.3781 Q1809.02 65.3249 1812.99 63.2184 L1812.99 70.267 Q1808.98 71.9684 1804.77 72.8596 Q1800.56 73.7508 1796.22 73.7508 Q1785.37 73.7508 1779.01 67.4314 Q1772.69 61.1119 1772.69 50.3365 Q1772.69 39.1965 1778.68 32.6746 Q1784.72 26.1121 1794.93 26.1121 Q1804.08 26.1121 1809.39 32.0264 Q1814.74 37.9003 1814.74 48.0275 M1807.28 45.84 Q1807.2 39.7232 1803.84 36.0774 Q1800.52 32.4315 1795.01 32.4315 Q1788.77 32.4315 1785 35.9558 Q1781.28 39.4801 1780.71 45.8805 L1807.28 45.84 Z" fill="#000000" fill-rule="evenodd" fill-opacity="1"></path><path clip-path="url(#clip850)" d="M1834.34 14.324 L1834.34 27.2059 L1849.7 27.2059 L1849.7 32.9987 L1834.34 32.9987 L1834.34 57.6282 Q1834.34 63.1779 1835.84 64.7578 Q1837.38 66.3376 1842.04 66.3376 L1849.7 66.3376 L1849.7 72.576 L1842.04 72.576 Q1833.41 72.576 1830.13 69.3758 Q1826.85 66.1351 1826.85 57.6282 L1826.85 32.9987 L1821.38 32.9987 L1821.38 27.2059 L1826.85 27.2059 L1826.85 14.324 L1834.34 14.324 Z" fill="#000000" fill-rule="evenodd" fill-opacity="1"></path><path clip-path="url(#clip850)" d="M1866.87 14.324 L1866.87 27.2059 L1882.22 27.2059 L1882.22 32.9987 L1866.87 32.9987 L1866.87 57.6282 Q1866.87 63.1779 1868.37 64.7578 Q1869.91 66.3376 1874.57 66.3376 L1882.22 66.3376 L1882.22 72.576 L1874.57 72.576 Q1865.94 72.576 1862.66 69.3758 Q1859.38 66.1351 1859.38 57.6282 L1859.38 32.9987 L1853.91 32.9987 L1853.91 27.2059 L1859.38 27.2059 L1859.38 14.324 L1866.87 14.324 Z" fill="#000000" fill-rule="evenodd" fill-opacity="1"></path><path clip-path="url(#clip850)" d="M1930.84 48.0275 L1930.84 51.6733 L1896.56 51.6733 Q1897.05 59.3701 1901.18 63.421 Q1905.36 67.4314 1912.77 67.4314 Q1917.06 67.4314 1921.07 66.3781 Q1925.12 65.3249 1929.09 63.2184 L1929.09 70.267 Q1925.08 71.9684 1920.87 72.8596 Q1916.66 73.7508 1912.32 73.7508 Q1901.47 73.7508 1895.11 67.4314 Q1888.79 61.1119 1888.79 50.3365 Q1888.79 39.1965 1894.78 32.6746 Q1900.82 26.1121 1911.03 26.1121 Q1920.18 26.1121 1925.49 32.0264 Q1930.84 37.9003 1930.84 48.0275 M1923.38 45.84 Q1923.3 39.7232 1919.94 36.0774 Q1916.62 32.4315 1911.11 32.4315 Q1904.87 32.4315 1901.1 35.9558 Q1897.38 39.4801 1896.81 45.8805 L1923.38 45.84 Z" fill="#000000" fill-rule="evenodd" fill-opacity="1"></path><path clip-path="url(#clip850)" d="M2004.76 35.9153 Q2007.56 30.8922 2011.45 28.5022 Q2015.34 26.1121 2020.6 26.1121 Q2027.69 26.1121 2031.54 31.0947 Q2035.39 36.0368 2035.39 45.1919 L2035.39 72.576 L2027.9 72.576 L2027.9 45.4349 Q2027.9 38.913 2025.59 35.7533 Q2023.28 32.5936 2018.54 32.5936 Q2012.74 32.5936 2009.38 36.4419 Q2006.02 40.2903 2006.02 46.9338 L2006.02 72.576 L1998.53 72.576 L1998.53 45.4349 Q1998.53 38.8725 1996.22 35.7533 Q1993.91 32.5936 1989.09 32.5936 Q1983.38 32.5936 1980.01 36.4824 Q1976.65 40.3308 1976.65 46.9338 L1976.65 72.576 L1969.16 72.576 L1969.16 27.2059 L1976.65 27.2059 L1976.65 34.2544 Q1979.2 30.082 1982.77 28.0971 Q1986.33 26.1121 1991.23 26.1121 Q1996.18 26.1121 1999.62 28.6237 Q2003.1 31.1352 2004.76 35.9153 Z" fill="#000000" fill-rule="evenodd" fill-opacity="1"></path><path clip-path="url(#clip850)" d="M2089.06 48.0275 L2089.06 51.6733 L2054.79 51.6733 Q2055.28 59.3701 2059.41 63.421 Q2063.58 67.4314 2071 67.4314 Q2075.29 67.4314 2079.3 66.3781 Q2083.35 65.3249 2087.32 63.2184 L2087.32 70.267 Q2083.31 71.9684 2079.1 72.8596 Q2074.89 73.7508 2070.55 73.7508 Q2059.69 73.7508 2053.33 67.4314 Q2047.02 61.1119 2047.02 50.3365 Q2047.02 39.1965 2053.01 32.6746 Q2059.05 26.1121 2069.25 26.1121 Q2078.41 26.1121 2083.72 32.0264 Q2089.06 37.9003 2089.06 48.0275 M2081.61 45.84 Q2081.53 39.7232 2078.17 36.0774 Q2074.85 32.4315 2069.34 32.4315 Q2063.1 32.4315 2059.33 35.9558 Q2055.6 39.4801 2055.04 45.8805 L2081.61 45.84 Z" fill="#000000" fill-rule="evenodd" fill-opacity="1"></path><path clip-path="url(#clip850)" d="M2108.67 14.324 L2108.67 27.2059 L2124.02 27.2059 L2124.02 32.9987 L2108.67 32.9987 L2108.67 57.6282 Q2108.67 63.1779 2110.17 64.7578 Q2111.71 66.3376 2116.37 66.3376 L2124.02 66.3376 L2124.02 72.576 L2116.37 72.576 Q2107.74 72.576 2104.46 69.3758 Q2101.18 66.1351 2101.18 57.6282 L2101.18 32.9987 L2095.71 32.9987 L2095.71 27.2059 L2101.18 27.2059 L2101.18 14.324 L2108.67 14.324 Z" fill="#000000" fill-rule="evenodd" fill-opacity="1"></path><path clip-path="url(#clip850)" d="M2171.54 45.1919 L2171.54 72.576 L2164.09 72.576 L2164.09 45.4349 Q2164.09 38.994 2161.58 35.7938 Q2159.06 32.5936 2154.04 32.5936 Q2148 32.5936 2144.52 36.4419 Q2141.04 40.2903 2141.04 46.9338 L2141.04 72.576 L2133.54 72.576 L2133.54 9.54393 L2141.04 9.54393 L2141.04 34.2544 Q2143.71 30.163 2147.32 28.1376 Q2150.96 26.1121 2155.7 26.1121 Q2163.52 26.1121 2167.53 30.9732 Q2171.54 35.7938 2171.54 45.1919 Z" fill="#000000" fill-rule="evenodd" fill-opacity="1"></path><path clip-path="url(#clip850)" d="M2203.99 32.4315 Q2197.99 32.4315 2194.51 37.1306 Q2191.03 41.7891 2191.03 49.9314 Q2191.03 58.0738 2194.47 62.7728 Q2197.95 67.4314 2203.99 67.4314 Q2209.94 67.4314 2213.43 62.7323 Q2216.91 58.0333 2216.91 49.9314 Q2216.91 41.8701 2213.43 37.1711 Q2209.94 32.4315 2203.99 32.4315 M2203.99 26.1121 Q2213.71 26.1121 2219.26 32.4315 Q2224.81 38.7509 2224.81 49.9314 Q2224.81 61.0714 2219.26 67.4314 Q2213.71 73.7508 2203.99 73.7508 Q2194.23 73.7508 2188.68 67.4314 Q2183.17 61.0714 2183.17 49.9314 Q2183.17 38.7509 2188.68 32.4315 Q2194.23 26.1121 2203.99 26.1121 Z" fill="#000000" fill-rule="evenodd" fill-opacity="1"></path><path clip-path="url(#clip850)" d="M2267.02 34.0924 L2267.02 9.54393 L2274.47 9.54393 L2274.47 72.576 L2267.02 72.576 L2267.02 65.7705 Q2264.67 69.8214 2261.07 71.8063 Q2257.5 73.7508 2252.48 73.7508 Q2244.25 73.7508 2239.07 67.1883 Q2233.92 60.6258 2233.92 49.9314 Q2233.92 39.2371 2239.07 32.6746 Q2244.25 26.1121 2252.48 26.1121 Q2257.5 26.1121 2261.07 28.0971 Q2264.67 30.0415 2267.02 34.0924 M2241.62 49.9314 Q2241.62 58.1548 2244.98 62.8538 Q2248.39 67.5124 2254.3 67.5124 Q2260.21 67.5124 2263.62 62.8538 Q2267.02 58.1548 2267.02 49.9314 Q2267.02 41.7081 2263.62 37.0496 Q2260.21 32.3505 2254.3 32.3505 Q2248.39 32.3505 2244.98 37.0496 Q2241.62 41.7081 2241.62 49.9314 Z" fill="#000000" fill-rule="evenodd" fill-opacity="1"></path><path clip-path="url(#clip850)" d="M2318.75 28.5427 L2318.75 35.5912 Q2315.59 33.9709 2312.19 33.1607 Q2308.78 32.3505 2305.14 32.3505 Q2299.59 32.3505 2296.79 34.0519 Q2294.04 35.7533 2294.04 39.156 Q2294.04 41.7486 2296.02 43.2475 Q2298.01 44.7058 2304 46.0426 L2306.56 46.6097 Q2314.5 48.3111 2317.82 51.4303 Q2321.18 54.509 2321.18 60.0587 Q2321.18 66.3781 2316.16 70.0644 Q2311.17 73.7508 2302.42 73.7508 Q2298.78 73.7508 2294.81 73.0216 Q2290.88 72.3329 2286.5 70.9151 L2286.5 63.2184 Q2290.64 65.3654 2294.65 66.4591 Q2298.66 67.5124 2302.59 67.5124 Q2307.85 67.5124 2310.69 65.73 Q2313.52 63.9071 2313.52 60.6258 Q2313.52 57.5877 2311.46 55.9673 Q2309.43 54.3469 2302.51 52.8481 L2299.91 52.2405 Q2292.99 50.7821 2289.91 47.7845 Q2286.83 44.7463 2286.83 39.4801 Q2286.83 33.0797 2291.37 29.5959 Q2295.9 26.1121 2304.25 26.1121 Q2308.38 26.1121 2312.03 26.7198 Q2315.67 27.3274 2318.75 28.5427 Z" fill="#000000" fill-rule="evenodd" fill-opacity="1"></path><polyline clip-path="url(#clip853)" style="stroke:#009af9; stroke-linecap:butt; stroke-linejoin:round; stroke-width:4; stroke-opacity:1; fill:none" points="
  315.786,1380.31 562.991,1231.85 810.196,1098.74 1057.4,957.261 1304.61,792.978 1551.81,643.628 1799.02,483.71 2046.22,305.986 2293.43,160.079 
  "></polyline>
<polyline clip-path="url(#clip853)" style="stroke:#e26f46; stroke-linecap:butt; stroke-linejoin:round; stroke-width:4; stroke-opacity:1; fill:none" points="
  315.786,1363.81 562.991,1280.36 810.196,1167.56 1057.4,1012.71 1304.61,877.854 1551.81,755.294 1799.02,616.963 2046.22,473.812 2293.43,323.556 
  "></polyline>
<polyline clip-path="url(#clip853)" style="stroke:#3da44d; stroke-linecap:butt; stroke-linejoin:round; stroke-width:4; stroke-opacity:1; fill:none" points="
  315.786,1164.14 562.991,1147.72 810.196,1101.02 1057.4,995.871 1304.61,872.988 1551.81,752.281 1799.02,615.567 2046.22,473.199 2293.43,323.604 
  "></polyline>
<path clip-path="url(#clip850)" d="
M1532.27 1373.81 L2282.88 1373.81 L2282.88 1166.45 L1532.27 1166.45  Z
  " fill="#ffffff" fill-rule="evenodd" fill-opacity="1"></path>
<polyline clip-path="url(#clip850)" style="stroke:#000000; stroke-linecap:butt; stroke-linejoin:round; stroke-width:4; stroke-opacity:1; fill:none" points="
  1532.27,1373.81 2282.88,1373.81 2282.88,1166.45 1532.27,1166.45 1532.27,1373.81 
  "></polyline>
<polyline clip-path="url(#clip850)" style="stroke:#009af9; stroke-linecap:butt; stroke-linejoin:round; stroke-width:4; stroke-opacity:1; fill:none" points="
  1555.57,1218.29 1695.32,1218.29 
  "></polyline>
<path clip-path="url(#clip850)" d="M1740.33 1219.92 L1740.33 1235.57 L1736.07 1235.57 L1736.07 1220.06 Q1736.07 1216.38 1734.63 1214.55 Q1733.2 1212.72 1730.33 1212.72 Q1726.88 1212.72 1724.89 1214.92 Q1722.89 1217.12 1722.89 1220.91 L1722.89 1235.57 L1718.61 1235.57 L1718.61 1209.64 L1722.89 1209.64 L1722.89 1213.67 Q1724.42 1211.33 1726.48 1210.17 Q1728.57 1209.02 1731.27 1209.02 Q1735.74 1209.02 1738.03 1211.79 Q1740.33 1214.55 1740.33 1219.92 Z" fill="#000000" fill-rule="evenodd" fill-opacity="1"></path><path clip-path="url(#clip850)" d="M1760.6 1222.53 Q1755.44 1222.53 1753.45 1223.71 Q1751.46 1224.9 1751.46 1227.74 Q1751.46 1230.01 1752.94 1231.35 Q1754.45 1232.67 1757.01 1232.67 Q1760.56 1232.67 1762.69 1230.17 Q1764.84 1227.65 1764.84 1223.48 L1764.84 1222.53 L1760.6 1222.53 M1769.1 1220.78 L1769.1 1235.57 L1764.84 1235.57 L1764.84 1231.63 Q1763.38 1233.99 1761.2 1235.13 Q1759.03 1236.24 1755.88 1236.24 Q1751.9 1236.24 1749.54 1234.02 Q1747.2 1231.77 1747.2 1228.02 Q1747.2 1223.65 1750.12 1221.42 Q1753.06 1219.2 1758.87 1219.2 L1764.84 1219.2 L1764.84 1218.78 Q1764.84 1215.84 1762.89 1214.25 Q1760.97 1212.63 1757.48 1212.63 Q1755.26 1212.63 1753.15 1213.16 Q1751.04 1213.69 1749.1 1214.76 L1749.1 1210.82 Q1751.44 1209.92 1753.64 1209.48 Q1755.83 1209.02 1757.92 1209.02 Q1763.54 1209.02 1766.32 1211.93 Q1769.1 1214.85 1769.1 1220.78 Z" fill="#000000" fill-rule="evenodd" fill-opacity="1"></path><path clip-path="url(#clip850)" d="M1777.87 1209.64 L1782.13 1209.64 L1782.13 1235.57 L1777.87 1235.57 L1777.87 1209.64 M1777.87 1199.55 L1782.13 1199.55 L1782.13 1204.94 L1777.87 1204.94 L1777.87 1199.55 Z" fill="#000000" fill-rule="evenodd" fill-opacity="1"></path><path clip-path="url(#clip850)" d="M1787.99 1209.64 L1792.5 1209.64 L1800.6 1231.4 L1808.7 1209.64 L1813.22 1209.64 L1803.5 1235.57 L1797.71 1235.57 L1787.99 1209.64 Z" fill="#000000" fill-rule="evenodd" fill-opacity="1"></path><path clip-path="url(#clip850)" d="M1841.27 1221.54 L1841.27 1223.62 L1821.69 1223.62 Q1821.97 1228.02 1824.33 1230.34 Q1826.71 1232.63 1830.95 1232.63 Q1833.4 1232.63 1835.7 1232.03 Q1838.01 1231.42 1840.28 1230.22 L1840.28 1234.25 Q1837.99 1235.22 1835.58 1235.73 Q1833.17 1236.24 1830.7 1236.24 Q1824.49 1236.24 1820.86 1232.63 Q1817.25 1229.02 1817.25 1222.86 Q1817.25 1216.49 1820.67 1212.77 Q1824.12 1209.02 1829.95 1209.02 Q1835.19 1209.02 1838.22 1212.4 Q1841.27 1215.75 1841.27 1221.54 M1837.01 1220.29 Q1836.97 1216.79 1835.05 1214.71 Q1833.15 1212.63 1830 1212.63 Q1826.44 1212.63 1824.28 1214.64 Q1822.15 1216.65 1821.83 1220.31 L1837.01 1220.29 Z" fill="#000000" fill-rule="evenodd" fill-opacity="1"></path><polyline clip-path="url(#clip850)" style="stroke:#e26f46; stroke-linecap:butt; stroke-linejoin:round; stroke-width:4; stroke-opacity:1; fill:none" points="
  1555.57,1270.13 1695.32,1270.13 
  "></polyline>
<path clip-path="url(#clip850)" d="M1730.51 1264.47 Q1727.08 1264.47 1725.09 1267.15 Q1723.1 1269.81 1723.1 1274.47 Q1723.1 1279.12 1725.07 1281.8 Q1727.06 1284.47 1730.51 1284.47 Q1733.91 1284.47 1735.9 1281.78 Q1737.89 1279.1 1737.89 1274.47 Q1737.89 1269.86 1735.9 1267.18 Q1733.91 1264.47 1730.51 1264.47 M1730.51 1260.86 Q1736.07 1260.86 1739.24 1264.47 Q1742.41 1268.08 1742.41 1274.47 Q1742.41 1280.83 1739.24 1284.47 Q1736.07 1288.08 1730.51 1288.08 Q1724.93 1288.08 1721.76 1284.47 Q1718.61 1280.83 1718.61 1274.47 Q1718.61 1268.08 1721.76 1264.47 Q1724.93 1260.86 1730.51 1260.86 Z" fill="#000000" fill-rule="evenodd" fill-opacity="1"></path><path clip-path="url(#clip850)" d="M1753.59 1283.52 L1753.59 1297.27 L1749.31 1297.27 L1749.31 1261.48 L1753.59 1261.48 L1753.59 1265.42 Q1754.93 1263.1 1756.97 1261.99 Q1759.03 1260.86 1761.88 1260.86 Q1766.6 1260.86 1769.54 1264.61 Q1772.5 1268.36 1772.5 1274.47 Q1772.5 1280.58 1769.54 1284.33 Q1766.6 1288.08 1761.88 1288.08 Q1759.03 1288.08 1756.97 1286.97 Q1754.93 1285.83 1753.59 1283.52 M1768.08 1274.47 Q1768.08 1269.77 1766.14 1267.11 Q1764.21 1264.42 1760.83 1264.42 Q1757.45 1264.42 1755.51 1267.11 Q1753.59 1269.77 1753.59 1274.47 Q1753.59 1279.17 1755.51 1281.85 Q1757.45 1284.51 1760.83 1284.51 Q1764.21 1284.51 1766.14 1281.85 Q1768.08 1279.17 1768.08 1274.47 Z" fill="#000000" fill-rule="evenodd" fill-opacity="1"></path><path clip-path="url(#clip850)" d="M1783.77 1254.12 L1783.77 1261.48 L1792.55 1261.48 L1792.55 1264.79 L1783.77 1264.79 L1783.77 1278.87 Q1783.77 1282.04 1784.63 1282.94 Q1785.51 1283.84 1788.17 1283.84 L1792.55 1283.84 L1792.55 1287.41 L1788.17 1287.41 Q1783.24 1287.41 1781.37 1285.58 Q1779.49 1283.73 1779.49 1278.87 L1779.49 1264.79 L1776.37 1264.79 L1776.37 1261.48 L1779.49 1261.48 L1779.49 1254.12 L1783.77 1254.12 Z" fill="#000000" fill-rule="evenodd" fill-opacity="1"></path><path clip-path="url(#clip850)" d="M1798.15 1261.48 L1802.41 1261.48 L1802.41 1287.41 L1798.15 1287.41 L1798.15 1261.48 M1798.15 1251.39 L1802.41 1251.39 L1802.41 1256.78 L1798.15 1256.78 L1798.15 1251.39 Z" fill="#000000" fill-rule="evenodd" fill-opacity="1"></path><path clip-path="url(#clip850)" d="M1831.51 1266.46 Q1833.1 1263.59 1835.32 1262.22 Q1837.55 1260.86 1840.56 1260.86 Q1844.61 1260.86 1846.81 1263.7 Q1849.01 1266.53 1849.01 1271.76 L1849.01 1287.41 L1844.72 1287.41 L1844.72 1271.9 Q1844.72 1268.17 1843.4 1266.37 Q1842.08 1264.56 1839.38 1264.56 Q1836.07 1264.56 1834.14 1266.76 Q1832.22 1268.96 1832.22 1272.75 L1832.22 1287.41 L1827.94 1287.41 L1827.94 1271.9 Q1827.94 1268.15 1826.62 1266.37 Q1825.3 1264.56 1822.55 1264.56 Q1819.28 1264.56 1817.36 1266.78 Q1815.44 1268.98 1815.44 1272.75 L1815.44 1287.41 L1811.16 1287.41 L1811.16 1261.48 L1815.44 1261.48 L1815.44 1265.51 Q1816.9 1263.12 1818.94 1261.99 Q1820.97 1260.86 1823.77 1260.86 Q1826.6 1260.86 1828.57 1262.29 Q1830.56 1263.73 1831.51 1266.46 Z" fill="#000000" fill-rule="evenodd" fill-opacity="1"></path><path clip-path="url(#clip850)" d="M1857.5 1261.48 L1861.76 1261.48 L1861.76 1287.41 L1857.5 1287.41 L1857.5 1261.48 M1857.5 1251.39 L1861.76 1251.39 L1861.76 1256.78 L1857.5 1256.78 L1857.5 1251.39 Z" fill="#000000" fill-rule="evenodd" fill-opacity="1"></path><path clip-path="url(#clip850)" d="M1887.2 1262.24 L1887.2 1266.27 Q1885.39 1265.35 1883.45 1264.88 Q1881.51 1264.42 1879.42 1264.42 Q1876.25 1264.42 1874.65 1265.39 Q1873.08 1266.37 1873.08 1268.31 Q1873.08 1269.79 1874.21 1270.65 Q1875.35 1271.48 1878.77 1272.24 L1880.23 1272.57 Q1884.77 1273.54 1886.67 1275.32 Q1888.59 1277.08 1888.59 1280.25 Q1888.59 1283.87 1885.72 1285.97 Q1882.87 1288.08 1877.87 1288.08 Q1875.79 1288.08 1873.52 1287.66 Q1871.27 1287.27 1868.77 1286.46 L1868.77 1282.06 Q1871.13 1283.29 1873.43 1283.91 Q1875.72 1284.51 1877.96 1284.51 Q1880.97 1284.51 1882.59 1283.49 Q1884.21 1282.45 1884.21 1280.58 Q1884.21 1278.84 1883.03 1277.92 Q1881.88 1276.99 1877.92 1276.13 L1876.44 1275.79 Q1872.48 1274.95 1870.72 1273.24 Q1868.96 1271.5 1868.96 1268.49 Q1868.96 1264.84 1871.55 1262.85 Q1874.14 1260.86 1878.91 1260.86 Q1881.27 1260.86 1883.36 1261.2 Q1885.44 1261.55 1887.2 1262.24 Z" fill="#000000" fill-rule="evenodd" fill-opacity="1"></path><path clip-path="url(#clip850)" d="M1917.55 1273.38 L1917.55 1275.46 L1897.96 1275.46 Q1898.24 1279.86 1900.6 1282.18 Q1902.99 1284.47 1907.22 1284.47 Q1909.68 1284.47 1911.97 1283.87 Q1914.28 1283.26 1916.55 1282.06 L1916.55 1286.09 Q1914.26 1287.06 1911.85 1287.57 Q1909.44 1288.08 1906.97 1288.08 Q1900.76 1288.08 1897.13 1284.47 Q1893.52 1280.86 1893.52 1274.7 Q1893.52 1268.33 1896.94 1264.61 Q1900.39 1260.86 1906.23 1260.86 Q1911.46 1260.86 1914.49 1264.24 Q1917.55 1267.59 1917.55 1273.38 M1913.29 1272.13 Q1913.24 1268.63 1911.32 1266.55 Q1909.42 1264.47 1906.27 1264.47 Q1902.71 1264.47 1900.56 1266.48 Q1898.43 1268.49 1898.1 1272.15 L1913.29 1272.13 Z" fill="#000000" fill-rule="evenodd" fill-opacity="1"></path><path clip-path="url(#clip850)" d="M1941.6 1265.42 L1941.6 1251.39 L1945.86 1251.39 L1945.86 1287.41 L1941.6 1287.41 L1941.6 1283.52 Q1940.25 1285.83 1938.19 1286.97 Q1936.16 1288.08 1933.29 1288.08 Q1928.59 1288.08 1925.63 1284.33 Q1922.69 1280.58 1922.69 1274.47 Q1922.69 1268.36 1925.63 1264.61 Q1928.59 1260.86 1933.29 1260.86 Q1936.16 1260.86 1938.19 1261.99 Q1940.25 1263.1 1941.6 1265.42 M1927.08 1274.47 Q1927.08 1279.17 1929 1281.85 Q1930.95 1284.51 1934.33 1284.51 Q1937.71 1284.51 1939.65 1281.85 Q1941.6 1279.17 1941.6 1274.47 Q1941.6 1269.77 1939.65 1267.11 Q1937.71 1264.42 1934.33 1264.42 Q1930.95 1264.42 1929 1267.11 Q1927.08 1269.77 1927.08 1274.47 Z" fill="#000000" fill-rule="evenodd" fill-opacity="1"></path><polyline clip-path="url(#clip850)" style="stroke:#3da44d; stroke-linecap:butt; stroke-linejoin:round; stroke-width:4; stroke-opacity:1; fill:none" points="
  1555.57,1321.97 1695.32,1321.97 
  "></polyline>
<path clip-path="url(#clip850)" d="M1730.51 1316.31 Q1727.08 1316.31 1725.09 1318.99 Q1723.1 1321.65 1723.1 1326.31 Q1723.1 1330.96 1725.07 1333.64 Q1727.06 1336.31 1730.51 1336.31 Q1733.91 1336.31 1735.9 1333.62 Q1737.89 1330.94 1737.89 1326.31 Q1737.89 1321.7 1735.9 1319.02 Q1733.91 1316.31 1730.51 1316.31 M1730.51 1312.7 Q1736.07 1312.7 1739.24 1316.31 Q1742.41 1319.92 1742.41 1326.31 Q1742.41 1332.67 1739.24 1336.31 Q1736.07 1339.92 1730.51 1339.92 Q1724.93 1339.92 1721.76 1336.31 Q1718.61 1332.67 1718.61 1326.31 Q1718.61 1319.92 1721.76 1316.31 Q1724.93 1312.7 1730.51 1312.7 Z" fill="#000000" fill-rule="evenodd" fill-opacity="1"></path><path clip-path="url(#clip850)" d="M1753.59 1335.36 L1753.59 1349.11 L1749.31 1349.11 L1749.31 1313.32 L1753.59 1313.32 L1753.59 1317.26 Q1754.93 1314.94 1756.97 1313.83 Q1759.03 1312.7 1761.88 1312.7 Q1766.6 1312.7 1769.54 1316.45 Q1772.5 1320.2 1772.5 1326.31 Q1772.5 1332.42 1769.54 1336.17 Q1766.6 1339.92 1761.88 1339.92 Q1759.03 1339.92 1756.97 1338.81 Q1754.93 1337.67 1753.59 1335.36 M1768.08 1326.31 Q1768.08 1321.61 1766.14 1318.95 Q1764.21 1316.26 1760.83 1316.26 Q1757.45 1316.26 1755.51 1318.95 Q1753.59 1321.61 1753.59 1326.31 Q1753.59 1331.01 1755.51 1333.69 Q1757.45 1336.35 1760.83 1336.35 Q1764.21 1336.35 1766.14 1333.69 Q1768.08 1331.01 1768.08 1326.31 Z" fill="#000000" fill-rule="evenodd" fill-opacity="1"></path><path clip-path="url(#clip850)" d="M1783.77 1305.96 L1783.77 1313.32 L1792.55 1313.32 L1792.55 1316.63 L1783.77 1316.63 L1783.77 1330.71 Q1783.77 1333.88 1784.63 1334.78 Q1785.51 1335.68 1788.17 1335.68 L1792.55 1335.68 L1792.55 1339.25 L1788.17 1339.25 Q1783.24 1339.25 1781.37 1337.42 Q1779.49 1335.57 1779.49 1330.71 L1779.49 1316.63 L1776.37 1316.63 L1776.37 1313.32 L1779.49 1313.32 L1779.49 1305.96 L1783.77 1305.96 Z" fill="#000000" fill-rule="evenodd" fill-opacity="1"></path><path clip-path="url(#clip850)" d="M1798.15 1313.32 L1802.41 1313.32 L1802.41 1339.25 L1798.15 1339.25 L1798.15 1313.32 M1798.15 1303.23 L1802.41 1303.23 L1802.41 1308.62 L1798.15 1308.62 L1798.15 1303.23 Z" fill="#000000" fill-rule="evenodd" fill-opacity="1"></path><path clip-path="url(#clip850)" d="M1831.51 1318.3 Q1833.1 1315.43 1835.32 1314.06 Q1837.55 1312.7 1840.56 1312.7 Q1844.61 1312.7 1846.81 1315.54 Q1849.01 1318.37 1849.01 1323.6 L1849.01 1339.25 L1844.72 1339.25 L1844.72 1323.74 Q1844.72 1320.01 1843.4 1318.21 Q1842.08 1316.4 1839.38 1316.4 Q1836.07 1316.4 1834.14 1318.6 Q1832.22 1320.8 1832.22 1324.59 L1832.22 1339.25 L1827.94 1339.25 L1827.94 1323.74 Q1827.94 1319.99 1826.62 1318.21 Q1825.3 1316.4 1822.55 1316.4 Q1819.28 1316.4 1817.36 1318.62 Q1815.44 1320.82 1815.44 1324.59 L1815.44 1339.25 L1811.16 1339.25 L1811.16 1313.32 L1815.44 1313.32 L1815.44 1317.35 Q1816.9 1314.96 1818.94 1313.83 Q1820.97 1312.7 1823.77 1312.7 Q1826.6 1312.7 1828.57 1314.13 Q1830.56 1315.57 1831.51 1318.3 Z" fill="#000000" fill-rule="evenodd" fill-opacity="1"></path><path clip-path="url(#clip850)" d="M1857.5 1313.32 L1861.76 1313.32 L1861.76 1339.25 L1857.5 1339.25 L1857.5 1313.32 M1857.5 1303.23 L1861.76 1303.23 L1861.76 1308.62 L1857.5 1308.62 L1857.5 1303.23 Z" fill="#000000" fill-rule="evenodd" fill-opacity="1"></path><path clip-path="url(#clip850)" d="M1887.2 1314.08 L1887.2 1318.11 Q1885.39 1317.19 1883.45 1316.72 Q1881.51 1316.26 1879.42 1316.26 Q1876.25 1316.26 1874.65 1317.23 Q1873.08 1318.21 1873.08 1320.15 Q1873.08 1321.63 1874.21 1322.49 Q1875.35 1323.32 1878.77 1324.08 L1880.23 1324.41 Q1884.77 1325.38 1886.67 1327.16 Q1888.59 1328.92 1888.59 1332.09 Q1888.59 1335.71 1885.72 1337.81 Q1882.87 1339.92 1877.87 1339.92 Q1875.79 1339.92 1873.52 1339.5 Q1871.27 1339.11 1868.77 1338.3 L1868.77 1333.9 Q1871.13 1335.13 1873.43 1335.75 Q1875.72 1336.35 1877.96 1336.35 Q1880.97 1336.35 1882.59 1335.33 Q1884.21 1334.29 1884.21 1332.42 Q1884.21 1330.68 1883.03 1329.76 Q1881.88 1328.83 1877.92 1327.97 L1876.44 1327.63 Q1872.48 1326.79 1870.72 1325.08 Q1868.96 1323.34 1868.96 1320.33 Q1868.96 1316.68 1871.55 1314.69 Q1874.14 1312.7 1878.91 1312.7 Q1881.27 1312.7 1883.36 1313.04 Q1885.44 1313.39 1887.2 1314.08 Z" fill="#000000" fill-rule="evenodd" fill-opacity="1"></path><path clip-path="url(#clip850)" d="M1917.55 1325.22 L1917.55 1327.3 L1897.96 1327.3 Q1898.24 1331.7 1900.6 1334.02 Q1902.99 1336.31 1907.22 1336.31 Q1909.68 1336.31 1911.97 1335.71 Q1914.28 1335.1 1916.55 1333.9 L1916.55 1337.93 Q1914.26 1338.9 1911.85 1339.41 Q1909.44 1339.92 1906.97 1339.92 Q1900.76 1339.92 1897.13 1336.31 Q1893.52 1332.7 1893.52 1326.54 Q1893.52 1320.17 1896.94 1316.45 Q1900.39 1312.7 1906.23 1312.7 Q1911.46 1312.7 1914.49 1316.08 Q1917.55 1319.43 1917.55 1325.22 M1913.29 1323.97 Q1913.24 1320.47 1911.32 1318.39 Q1909.42 1316.31 1906.27 1316.31 Q1902.71 1316.31 1900.56 1318.32 Q1898.43 1320.33 1898.1 1323.99 L1913.29 1323.97 Z" fill="#000000" fill-rule="evenodd" fill-opacity="1"></path><path clip-path="url(#clip850)" d="M1941.6 1317.26 L1941.6 1303.23 L1945.86 1303.23 L1945.86 1339.25 L1941.6 1339.25 L1941.6 1335.36 Q1940.25 1337.67 1938.19 1338.81 Q1936.16 1339.92 1933.29 1339.92 Q1928.59 1339.92 1925.63 1336.17 Q1922.69 1332.42 1922.69 1326.31 Q1922.69 1320.2 1925.63 1316.45 Q1928.59 1312.7 1933.29 1312.7 Q1936.16 1312.7 1938.19 1313.83 Q1940.25 1314.94 1941.6 1317.26 M1927.08 1326.31 Q1927.08 1331.01 1929 1333.69 Q1930.95 1336.35 1934.33 1336.35 Q1937.71 1336.35 1939.65 1333.69 Q1941.6 1331.01 1941.6 1326.31 Q1941.6 1321.61 1939.65 1318.95 Q1937.71 1316.26 1934.33 1316.26 Q1930.95 1316.26 1929 1318.95 Q1927.08 1321.61 1927.08 1326.31 Z" fill="#000000" fill-rule="evenodd" fill-opacity="1"></path><path clip-path="url(#clip850)" d="M1954.81 1304.69 L1959.49 1304.69 L1959.49 1339.25 L1954.81 1339.25 L1954.81 1304.69 Z" fill="#000000" fill-rule="evenodd" fill-opacity="1"></path><path clip-path="url(#clip850)" d="M1990.16 1323.6 L1990.16 1339.25 L1985.9 1339.25 L1985.9 1323.74 Q1985.9 1320.06 1984.47 1318.23 Q1983.03 1316.4 1980.16 1316.4 Q1976.71 1316.4 1974.72 1318.6 Q1972.73 1320.8 1972.73 1324.59 L1972.73 1339.25 L1968.45 1339.25 L1968.45 1313.32 L1972.73 1313.32 L1972.73 1317.35 Q1974.26 1315.01 1976.32 1313.85 Q1978.4 1312.7 1981.11 1312.7 Q1985.58 1312.7 1987.87 1315.47 Q1990.16 1318.23 1990.16 1323.6 Z" fill="#000000" fill-rule="evenodd" fill-opacity="1"></path><path clip-path="url(#clip850)" d="M2002.87 1305.96 L2002.87 1313.32 L2011.64 1313.32 L2011.64 1316.63 L2002.87 1316.63 L2002.87 1330.71 Q2002.87 1333.88 2003.73 1334.78 Q2004.61 1335.68 2007.27 1335.68 L2011.64 1335.68 L2011.64 1339.25 L2007.27 1339.25 Q2002.34 1339.25 2000.46 1337.42 Q1998.59 1335.57 1998.59 1330.71 L1998.59 1316.63 L1995.46 1316.63 L1995.46 1313.32 L1998.59 1313.32 L1998.59 1305.96 L2002.87 1305.96 Z" fill="#000000" fill-rule="evenodd" fill-opacity="1"></path><path clip-path="url(#clip850)" d="M2039.42 1325.22 L2039.42 1327.3 L2019.84 1327.3 Q2020.12 1331.7 2022.48 1334.02 Q2024.86 1336.31 2029.1 1336.31 Q2031.55 1336.31 2033.84 1335.71 Q2036.16 1335.1 2038.43 1333.9 L2038.43 1337.93 Q2036.13 1338.9 2033.73 1339.41 Q2031.32 1339.92 2028.84 1339.92 Q2022.64 1339.92 2019 1336.31 Q2015.39 1332.7 2015.39 1326.54 Q2015.39 1320.17 2018.82 1316.45 Q2022.27 1312.7 2028.1 1312.7 Q2033.33 1312.7 2036.37 1316.08 Q2039.42 1319.43 2039.42 1325.22 M2035.16 1323.97 Q2035.12 1320.47 2033.19 1318.39 Q2031.3 1316.31 2028.15 1316.31 Q2024.58 1316.31 2022.43 1318.32 Q2020.3 1320.33 2019.98 1323.99 L2035.16 1323.97 Z" fill="#000000" fill-rule="evenodd" fill-opacity="1"></path><path clip-path="url(#clip850)" d="M2061.43 1317.3 Q2060.72 1316.89 2059.86 1316.7 Q2059.03 1316.49 2058.01 1316.49 Q2054.4 1316.49 2052.45 1318.85 Q2050.53 1321.19 2050.53 1325.59 L2050.53 1339.25 L2046.25 1339.25 L2046.25 1313.32 L2050.53 1313.32 L2050.53 1317.35 Q2051.87 1314.99 2054.03 1313.85 Q2056.18 1312.7 2059.26 1312.7 Q2059.7 1312.7 2060.23 1312.77 Q2060.76 1312.81 2061.41 1312.93 L2061.43 1317.3 Z" fill="#000000" fill-rule="evenodd" fill-opacity="1"></path><path clip-path="url(#clip850)" d="M2070.02 1335.36 L2070.02 1349.11 L2065.74 1349.11 L2065.74 1313.32 L2070.02 1313.32 L2070.02 1317.26 Q2071.37 1314.94 2073.4 1313.83 Q2075.46 1312.7 2078.31 1312.7 Q2083.03 1312.7 2085.97 1316.45 Q2088.93 1320.2 2088.93 1326.31 Q2088.93 1332.42 2085.97 1336.17 Q2083.03 1339.92 2078.31 1339.92 Q2075.46 1339.92 2073.4 1338.81 Q2071.37 1337.67 2070.02 1335.36 M2084.51 1326.31 Q2084.51 1321.61 2082.57 1318.95 Q2080.65 1316.26 2077.27 1316.26 Q2073.89 1316.26 2071.94 1318.95 Q2070.02 1321.61 2070.02 1326.31 Q2070.02 1331.01 2071.94 1333.69 Q2073.89 1336.35 2077.27 1336.35 Q2080.65 1336.35 2082.57 1333.69 Q2084.51 1331.01 2084.51 1326.31 Z" fill="#000000" fill-rule="evenodd" fill-opacity="1"></path><path clip-path="url(#clip850)" d="M2106.04 1316.31 Q2102.61 1316.31 2100.62 1318.99 Q2098.63 1321.65 2098.63 1326.31 Q2098.63 1330.96 2100.6 1333.64 Q2102.59 1336.31 2106.04 1336.31 Q2109.44 1336.31 2111.43 1333.62 Q2113.43 1330.94 2113.43 1326.31 Q2113.43 1321.7 2111.43 1319.02 Q2109.44 1316.31 2106.04 1316.31 M2106.04 1312.7 Q2111.6 1312.7 2114.77 1316.31 Q2117.94 1319.92 2117.94 1326.31 Q2117.94 1332.67 2114.77 1336.31 Q2111.6 1339.92 2106.04 1339.92 Q2100.46 1339.92 2097.29 1336.31 Q2094.14 1332.67 2094.14 1326.31 Q2094.14 1319.92 2097.29 1316.31 Q2100.46 1312.7 2106.04 1312.7 Z" fill="#000000" fill-rule="evenodd" fill-opacity="1"></path><path clip-path="url(#clip850)" d="M2125 1303.23 L2129.26 1303.23 L2129.26 1339.25 L2125 1339.25 L2125 1303.23 Z" fill="#000000" fill-rule="evenodd" fill-opacity="1"></path><path clip-path="url(#clip850)" d="M2149.95 1326.21 Q2144.79 1326.21 2142.8 1327.39 Q2140.81 1328.58 2140.81 1331.42 Q2140.81 1333.69 2142.29 1335.03 Q2143.8 1336.35 2146.36 1336.35 Q2149.91 1336.35 2152.04 1333.85 Q2154.19 1331.33 2154.19 1327.16 L2154.19 1326.21 L2149.95 1326.21 M2158.45 1324.46 L2158.45 1339.25 L2154.19 1339.25 L2154.19 1335.31 Q2152.73 1337.67 2150.55 1338.81 Q2148.38 1339.92 2145.23 1339.92 Q2141.25 1339.92 2138.89 1337.7 Q2136.55 1335.45 2136.55 1331.7 Q2136.55 1327.33 2139.47 1325.1 Q2142.41 1322.88 2148.22 1322.88 L2154.19 1322.88 L2154.19 1322.46 Q2154.19 1319.52 2152.24 1317.93 Q2150.32 1316.31 2146.83 1316.31 Q2144.61 1316.31 2142.5 1316.84 Q2140.39 1317.37 2138.45 1318.44 L2138.45 1314.5 Q2140.79 1313.6 2142.99 1313.16 Q2145.18 1312.7 2147.27 1312.7 Q2152.89 1312.7 2155.67 1315.61 Q2158.45 1318.53 2158.45 1324.46 Z" fill="#000000" fill-rule="evenodd" fill-opacity="1"></path><path clip-path="url(#clip850)" d="M2171.43 1305.96 L2171.43 1313.32 L2180.21 1313.32 L2180.21 1316.63 L2171.43 1316.63 L2171.43 1330.71 Q2171.43 1333.88 2172.29 1334.78 Q2173.17 1335.68 2175.83 1335.68 L2180.21 1335.68 L2180.21 1339.25 L2175.83 1339.25 Q2170.9 1339.25 2169.03 1337.42 Q2167.15 1335.57 2167.15 1330.71 L2167.15 1316.63 L2164.03 1316.63 L2164.03 1313.32 L2167.15 1313.32 L2167.15 1305.96 L2171.43 1305.96 Z" fill="#000000" fill-rule="evenodd" fill-opacity="1"></path><path clip-path="url(#clip850)" d="M2207.98 1325.22 L2207.98 1327.3 L2188.4 1327.3 Q2188.68 1331.7 2191.04 1334.02 Q2193.42 1336.31 2197.66 1336.31 Q2200.11 1336.31 2202.41 1335.71 Q2204.72 1335.1 2206.99 1333.9 L2206.99 1337.93 Q2204.7 1338.9 2202.29 1339.41 Q2199.88 1339.92 2197.41 1339.92 Q2191.2 1339.92 2187.57 1336.31 Q2183.96 1332.7 2183.96 1326.54 Q2183.96 1320.17 2187.38 1316.45 Q2190.83 1312.7 2196.67 1312.7 Q2201.9 1312.7 2204.93 1316.08 Q2207.98 1319.43 2207.98 1325.22 M2203.73 1323.97 Q2203.68 1320.47 2201.76 1318.39 Q2199.86 1316.31 2196.71 1316.31 Q2193.15 1316.31 2190.99 1318.32 Q2188.86 1320.33 2188.54 1323.99 L2203.73 1323.97 Z" fill="#000000" fill-rule="evenodd" fill-opacity="1"></path><path clip-path="url(#clip850)" d="M2232.04 1317.26 L2232.04 1303.23 L2236.29 1303.23 L2236.29 1339.25 L2232.04 1339.25 L2232.04 1335.36 Q2230.69 1337.67 2228.63 1338.81 Q2226.6 1339.92 2223.73 1339.92 Q2219.03 1339.92 2216.06 1336.17 Q2213.12 1332.42 2213.12 1326.31 Q2213.12 1320.2 2216.06 1316.45 Q2219.03 1312.7 2223.73 1312.7 Q2226.6 1312.7 2228.63 1313.83 Q2230.69 1314.94 2232.04 1317.26 M2217.52 1326.31 Q2217.52 1331.01 2219.44 1333.69 Q2221.39 1336.35 2224.77 1336.35 Q2228.15 1336.35 2230.09 1333.69 Q2232.04 1331.01 2232.04 1326.31 Q2232.04 1321.61 2230.09 1318.95 Q2228.15 1316.26 2224.77 1316.26 Q2221.39 1316.26 2219.44 1318.95 Q2217.52 1321.61 2217.52 1326.31 Z" fill="#000000" fill-rule="evenodd" fill-opacity="1"></path></svg>